<?xml version="1.0" encoding="utf-8"?>
<svg xmlns="http://www.w3.org/2000/svg" version="1.1" viewBox="0 0 17 3.5">
  <path d="M 1.865 2.071 C 1.684 2.071 1.538 2.217 1.538 2.399 C 1.538 2.58 1.684 2.726 1.865 2.726 C 2.046 2.726 2.193 2.58 2.193 2.399 C 2.193 2.217 2.046 2.071 1.865 2.071 M 1.865 2.55 C 1.81 2.551 1.76 2.522 1.732 2.475 C 1.705 2.427 1.705 2.369 1.732 2.322 C 1.76 2.275 1.81 2.246 1.865 2.247 C 1.948 2.248 2.014 2.316 2.014 2.399 C 2.014 2.481 1.948 2.549 1.865 2.55 M 4.017 2.071 C 3.836 2.071 3.69 2.217 3.69 2.399 C 3.69 2.58 3.836 2.726 4.017 2.726 C 4.199 2.726 4.345 2.58 4.345 2.399 C 4.345 2.217 4.199 2.071 4.017 2.071 M 4.017 2.55 C 3.934 2.55 3.866 2.482 3.866 2.399 C 3.866 2.358 3.881 2.32 3.91 2.291 C 3.938 2.263 3.977 2.247 4.017 2.247 C 4.058 2.247 4.096 2.263 4.124 2.291 C 4.153 2.32 4.169 2.358 4.169 2.399 C 4.169 2.482 4.101 2.55 4.017 2.55 M 0.841 0.704 L 0.286 0.704 C 0.232 0.704 0.191 0.733 0.191 0.77 L 0.191 0.79 C 0.191 0.828 0.232 0.857 0.286 0.857 L 0.841 0.857 C 0.895 0.857 0.936 0.828 0.936 0.79 L 0.936 0.77 C 0.936 0.733 0.895 0.704 0.841 0.704 M 0.759 1.933 L 0.355 1.933 C 0.301 1.933 0.26 1.962 0.26 2 L 0.26 2.02 C 0.26 2.057 0.301 2.086 0.355 2.086 L 0.759 2.086 C 0.814 2.086 0.855 2.057 0.855 2.02 L 0.855 2 C 0.855 1.962 0.814 1.933 0.759 1.933 M 4.88 2.091 L 4.844 2.091 C 4.838 1.964 4.827 2.028 4.813 1.916 C 4.802 1.829 4.748 1.753 4.669 1.713 L 4.604 1.682 L 4.146 0.982 C 4.106 0.923 4.039 0.887 3.967 0.887 L 3.259 0.887 L 3.259 0.761 C 3.259 0.747 3.253 0.732 3.243 0.721 C 3.231 0.711 3.217 0.704 3.202 0.704 L 1.407 0.704 C 1.403 0.704 1.399 0.704 1.396 0.705 L 1.18 0.705 C 1.125 0.705 1.084 0.733 1.084 0.772 L 1.084 0.792 C 1.084 0.829 1.125 0.857 1.18 0.857 L 2.097 0.857 C 2.152 0.857 2.193 0.886 2.193 0.924 L 2.193 0.944 C 2.193 0.982 2.152 1.011 2.097 1.011 L 0.812 1.011 C 0.757 1.011 0.717 1.039 0.717 1.077 L 0.717 1.097 C 0.717 1.135 0.757 1.164 0.812 1.164 L 1.723 1.164 C 1.777 1.164 1.818 1.192 1.818 1.23 L 1.818 1.25 C 1.818 1.288 1.777 1.316 1.723 1.316 L 1.067 1.316 C 1.013 1.316 0.972 1.345 0.972 1.383 L 0.972 1.403 C 0.972 1.44 1.013 1.469 1.067 1.469 L 2.279 1.469 C 2.333 1.469 2.374 1.498 2.374 1.536 L 2.374 1.556 C 2.374 1.593 2.333 1.622 2.279 1.622 L 0.685 1.622 C 0.63 1.622 0.589 1.65 0.589 1.689 L 0.589 1.709 C 0.589 1.746 0.63 1.775 0.685 1.775 L 1.566 1.775 C 1.62 1.775 1.661 1.803 1.661 1.841 L 1.661 1.861 C 1.661 1.899 1.62 1.928 1.566 1.928 L 1.076 1.928 C 1.022 1.928 0.981 1.956 0.981 1.994 L 0.981 2.014 C 0.981 2.052 1.022 2.081 1.076 2.081 L 1.265 2.081 C 1.32 2.081 1.361 2.11 1.361 2.147 L 1.361 2.167 C 1.361 2.205 1.32 2.234 1.265 2.234 L 1.194 2.236 L 1.186 2.236 C 1.184 2.236 1.182 2.236 1.181 2.236 L 0.936 2.236 C 0.882 2.236 0.841 2.265 0.841 2.305 L 0.841 2.324 C 0.841 2.364 0.882 2.394 0.936 2.394 L 1.181 2.394 C 1.182 2.394 1.184 2.393 1.186 2.393 L 1.252 2.393 L 1.469 2.393 C 1.469 2.174 1.646 1.997 1.865 1.997 C 2.084 1.997 2.261 2.174 2.261 2.393 L 3.202 2.393 L 3.621 2.393 C 3.621 2.174 3.798 1.997 4.017 1.997 C 4.236 1.997 4.414 2.174 4.414 2.393 L 4.88 2.393 C 4.91 2.393 4.934 2.369 4.934 2.339 L 4.934 2.146 C 4.934 2.116 4.91 2.091 4.88 2.091 M 4.378 1.684 L 3.471 1.684 C 3.453 1.684 3.439 1.669 3.439 1.652 L 3.439 1.05 C 3.439 1.032 3.453 1.018 3.471 1.018 L 3.969 1.018 C 3.99 1.018 4.006 1.023 4.022 1.05 L 4.411 1.652 C 4.42 1.676 4.4 1.685 4.378 1.684 M 0.466 1.318 C 0.411 1.318 0.371 1.347 0.371 1.385 L 0.371 1.405 C 0.371 1.442 0.411 1.471 0.466 1.471 L 0.664 1.471 C 0.718 1.471 0.759 1.442 0.759 1.405 L 0.759 1.385 C 0.759 1.347 0.718 1.318 0.664 1.318 L 0.466 1.318 Z M 0.501 2.241 C 0.447 2.241 0.407 2.27 0.407 2.307 L 0.407 2.326 C 0.407 2.365 0.447 2.394 0.501 2.394 L 0.597 2.394 C 0.651 2.394 0.692 2.365 0.692 2.326 L 0.692 2.307 C 0.692 2.27 0.651 2.241 0.597 2.241 L 0.501 2.241 Z" fill-rule="nonzero" style="fill: rgb(0, 82, 218);"/>
  <path d="M 5.612 1.805 C 5.603 1.805 5.595 1.802 5.589 1.795 C 5.583 1.789 5.58 1.781 5.58 1.773 C 5.58 1.768 5.581 1.764 5.582 1.76 L 5.939 0.795 C 5.942 0.784 5.948 0.775 5.957 0.767 C 5.966 0.759 5.978 0.755 5.994 0.755 L 6.186 0.755 C 6.202 0.755 6.215 0.759 6.224 0.767 C 6.233 0.775 6.239 0.784 6.242 0.795 L 6.599 1.76 C 6.6 1.764 6.6 1.768 6.6 1.773 C 6.6 1.781 6.597 1.789 6.591 1.795 C 6.585 1.802 6.578 1.805 6.569 1.805 L 6.413 1.805 C 6.398 1.805 6.387 1.801 6.38 1.794 C 6.373 1.787 6.368 1.781 6.366 1.775 L 6.302 1.607 L 5.879 1.607 L 5.814 1.775 C 5.812 1.781 5.808 1.787 5.801 1.794 C 5.794 1.801 5.783 1.805 5.768 1.805 L 5.612 1.805 M 5.934 1.413 L 6.245 1.413 L 6.09 0.981 L 5.934 1.413 M 7.077 1.82 C 7.002 1.82 6.936 1.808 6.88 1.783 C 6.824 1.759 6.781 1.723 6.75 1.677 C 6.719 1.631 6.703 1.577 6.703 1.515 C 6.703 1.471 6.712 1.432 6.73 1.398 C 6.747 1.364 6.771 1.334 6.802 1.306 C 6.833 1.279 6.869 1.253 6.909 1.23 C 6.868 1.186 6.839 1.146 6.821 1.11 C 6.804 1.074 6.795 1.037 6.795 0.999 C 6.795 0.953 6.807 0.911 6.831 0.872 C 6.855 0.833 6.89 0.801 6.937 0.777 C 6.984 0.752 7.042 0.74 7.11 0.74 C 7.174 0.74 7.228 0.752 7.273 0.775 C 7.318 0.799 7.353 0.83 7.377 0.869 C 7.401 0.908 7.413 0.95 7.413 0.996 C 7.413 1.037 7.404 1.074 7.385 1.107 C 7.367 1.139 7.341 1.168 7.309 1.194 C 7.277 1.22 7.241 1.245 7.2 1.269 L 7.396 1.466 C 7.406 1.449 7.419 1.425 7.434 1.395 C 7.449 1.365 7.462 1.327 7.474 1.28 C 7.477 1.264 7.488 1.256 7.506 1.256 L 7.636 1.256 C 7.645 1.256 7.653 1.259 7.658 1.264 C 7.664 1.27 7.666 1.277 7.666 1.286 C 7.665 1.305 7.661 1.327 7.653 1.353 C 7.645 1.378 7.634 1.405 7.62 1.433 C 7.606 1.461 7.59 1.488 7.573 1.515 C 7.556 1.542 7.539 1.567 7.522 1.59 L 7.686 1.755 C 7.693 1.763 7.696 1.771 7.696 1.778 C 7.696 1.786 7.694 1.792 7.689 1.797 C 7.684 1.802 7.677 1.805 7.668 1.805 L 7.495 1.805 C 7.485 1.805 7.477 1.803 7.471 1.8 C 7.465 1.796 7.46 1.793 7.455 1.79 L 7.38 1.718 C 7.34 1.751 7.295 1.776 7.246 1.794 C 7.196 1.811 7.14 1.82 7.077 1.82 M 7.077 1.647 C 7.11 1.647 7.141 1.642 7.171 1.632 C 7.2 1.621 7.227 1.604 7.252 1.58 L 7.03 1.362 C 6.999 1.379 6.973 1.4 6.951 1.423 C 6.929 1.447 6.918 1.475 6.918 1.508 C 6.918 1.537 6.925 1.562 6.94 1.583 C 6.955 1.604 6.975 1.62 7 1.631 C 7.024 1.642 7.05 1.647 7.077 1.647 M 7.083 1.145 C 7.108 1.131 7.131 1.117 7.152 1.104 C 7.173 1.09 7.189 1.075 7.201 1.059 C 7.213 1.042 7.219 1.023 7.219 1.002 C 7.219 0.971 7.209 0.947 7.188 0.929 C 7.167 0.911 7.141 0.902 7.11 0.902 C 7.081 0.902 7.055 0.911 7.033 0.929 C 7.011 0.947 7 0.971 7 1.002 C 7 1.016 7.003 1.03 7.008 1.044 C 7.013 1.057 7.021 1.072 7.033 1.088 C 7.045 1.104 7.062 1.123 7.083 1.145 M 8.205 1.82 C 8.149 1.82 8.096 1.813 8.046 1.799 C 7.996 1.785 7.951 1.764 7.912 1.735 C 7.873 1.707 7.843 1.671 7.82 1.629 C 7.798 1.587 7.785 1.538 7.783 1.482 C 7.783 1.473 7.786 1.466 7.792 1.459 C 7.798 1.453 7.806 1.449 7.816 1.449 L 7.987 1.449 C 8 1.449 8.011 1.453 8.018 1.46 C 8.026 1.467 8.031 1.477 8.035 1.49 C 8.04 1.522 8.051 1.548 8.067 1.568 C 8.083 1.588 8.103 1.603 8.128 1.612 C 8.152 1.622 8.18 1.626 8.211 1.626 C 8.268 1.626 8.312 1.608 8.342 1.571 C 8.373 1.534 8.388 1.481 8.388 1.413 L 8.388 0.954 L 7.888 0.954 C 7.878 0.954 7.87 0.951 7.863 0.944 C 7.856 0.937 7.852 0.928 7.852 0.918 L 7.852 0.792 C 7.852 0.781 7.856 0.772 7.863 0.765 C 7.87 0.758 7.878 0.755 7.888 0.755 L 8.595 0.755 C 8.606 0.755 8.615 0.758 8.622 0.765 C 8.629 0.772 8.632 0.781 8.632 0.792 L 8.632 1.419 C 8.632 1.505 8.614 1.578 8.578 1.638 C 8.542 1.697 8.492 1.742 8.428 1.773 C 8.364 1.804 8.29 1.82 8.205 1.82 M 9.244 1.805 C 9.233 1.805 9.224 1.801 9.217 1.794 C 9.21 1.787 9.207 1.778 9.207 1.767 L 9.207 0.792 C 9.207 0.781 9.21 0.772 9.217 0.765 C 9.224 0.758 9.233 0.755 9.244 0.755 L 9.411 0.755 C 9.422 0.755 9.431 0.758 9.438 0.765 C 9.445 0.772 9.448 0.781 9.448 0.792 L 9.448 1.604 L 9.913 1.604 C 9.924 1.604 9.933 1.607 9.94 1.614 C 9.947 1.621 9.951 1.63 9.951 1.641 L 9.951 1.767 C 9.951 1.778 9.947 1.787 9.94 1.794 C 9.933 1.801 9.924 1.805 9.913 1.805 L 9.244 1.805 M 10.042 1.805 C 10.033 1.805 10.026 1.802 10.02 1.795 C 10.014 1.789 10.011 1.781 10.011 1.773 C 10.011 1.768 10.011 1.764 10.012 1.76 L 10.369 0.795 C 10.372 0.784 10.378 0.775 10.387 0.767 C 10.396 0.759 10.409 0.755 10.425 0.755 L 10.617 0.755 C 10.633 0.755 10.645 0.759 10.654 0.767 C 10.663 0.775 10.669 0.784 10.672 0.795 L 11.029 1.76 C 11.03 1.764 11.031 1.768 11.031 1.773 C 11.031 1.781 11.028 1.789 11.022 1.795 C 11.016 1.802 11.008 1.805 10.999 1.805 L 10.843 1.805 C 10.828 1.805 10.817 1.801 10.81 1.794 C 10.803 1.787 10.799 1.781 10.797 1.775 L 10.732 1.607 L 10.309 1.607 L 10.245 1.775 C 10.243 1.781 10.238 1.787 10.231 1.794 C 10.224 1.801 10.213 1.805 10.198 1.805 L 10.042 1.805 M 10.365 1.413 L 10.675 1.413 L 10.521 0.981 L 10.365 1.413 M 11.536 1.82 C 11.44 1.82 11.36 1.806 11.296 1.778 C 11.231 1.75 11.182 1.713 11.149 1.668 C 11.116 1.623 11.099 1.575 11.097 1.524 C 11.097 1.516 11.1 1.509 11.106 1.503 C 11.112 1.496 11.119 1.493 11.128 1.493 L 11.289 1.493 C 11.302 1.493 11.312 1.496 11.319 1.501 C 11.326 1.507 11.332 1.513 11.338 1.521 C 11.345 1.538 11.357 1.555 11.372 1.571 C 11.388 1.587 11.409 1.6 11.436 1.611 C 11.463 1.621 11.496 1.626 11.536 1.626 C 11.601 1.626 11.65 1.616 11.683 1.595 C 11.715 1.574 11.731 1.545 11.731 1.509 C 11.731 1.483 11.723 1.462 11.705 1.446 C 11.688 1.43 11.66 1.416 11.623 1.403 C 11.585 1.39 11.535 1.376 11.473 1.361 C 11.398 1.345 11.335 1.324 11.282 1.299 C 11.23 1.273 11.19 1.24 11.164 1.2 C 11.137 1.159 11.124 1.109 11.124 1.049 C 11.124 0.989 11.14 0.936 11.173 0.889 C 11.206 0.843 11.253 0.806 11.313 0.78 C 11.373 0.753 11.444 0.74 11.527 0.74 C 11.594 0.74 11.654 0.749 11.705 0.767 C 11.757 0.785 11.8 0.808 11.834 0.837 C 11.869 0.866 11.895 0.897 11.913 0.93 C 11.931 0.963 11.94 0.995 11.941 1.026 C 11.941 1.034 11.938 1.042 11.932 1.048 C 11.926 1.055 11.919 1.058 11.91 1.058 L 11.742 1.058 C 11.732 1.058 11.723 1.056 11.715 1.052 C 11.707 1.048 11.7 1.041 11.695 1.031 C 11.689 1.005 11.672 0.982 11.642 0.963 C 11.613 0.943 11.574 0.933 11.527 0.933 C 11.478 0.933 11.44 0.942 11.411 0.96 C 11.383 0.978 11.368 1.006 11.368 1.043 C 11.368 1.067 11.376 1.087 11.39 1.104 C 11.405 1.12 11.429 1.135 11.464 1.147 C 11.498 1.16 11.544 1.173 11.601 1.188 C 11.689 1.206 11.76 1.228 11.815 1.253 C 11.87 1.278 11.911 1.31 11.937 1.35 C 11.963 1.389 11.976 1.439 11.976 1.499 C 11.976 1.566 11.957 1.623 11.92 1.671 C 11.882 1.719 11.831 1.756 11.765 1.782 C 11.7 1.807 11.623 1.82 11.536 1.82 M 12.409 1.805 C 12.398 1.805 12.389 1.801 12.382 1.794 C 12.375 1.787 12.372 1.778 12.372 1.767 L 12.372 0.963 L 12.099 0.963 C 12.089 0.963 12.08 0.96 12.073 0.953 C 12.066 0.946 12.063 0.937 12.063 0.927 L 12.063 0.792 C 12.063 0.781 12.066 0.772 12.073 0.765 C 12.08 0.758 12.089 0.755 12.099 0.755 L 12.885 0.755 C 12.896 0.755 12.905 0.758 12.912 0.765 C 12.919 0.772 12.922 0.781 12.922 0.792 L 12.922 0.927 C 12.922 0.937 12.919 0.946 12.912 0.953 C 12.905 0.96 12.896 0.963 12.885 0.963 L 12.613 0.963 L 12.613 1.767 C 12.613 1.778 12.61 1.787 12.603 1.794 C 12.596 1.801 12.587 1.805 12.576 1.805 L 12.409 1.805 M 13.431 1.805 C 13.421 1.805 13.412 1.801 13.405 1.794 C 13.397 1.787 13.393 1.778 13.393 1.767 L 13.393 0.792 C 13.393 0.781 13.397 0.772 13.405 0.765 C 13.412 0.758 13.421 0.755 13.431 0.755 L 13.57 0.755 C 13.585 0.755 13.597 0.759 13.604 0.767 C 13.612 0.775 13.617 0.781 13.62 0.785 L 13.896 1.293 L 14.175 0.785 C 14.177 0.781 14.182 0.775 14.189 0.767 C 14.197 0.759 14.208 0.755 14.223 0.755 L 14.362 0.755 C 14.373 0.755 14.382 0.758 14.389 0.765 C 14.396 0.772 14.4 0.781 14.4 0.792 L 14.4 1.767 C 14.4 1.778 14.396 1.787 14.389 1.794 C 14.382 1.801 14.373 1.805 14.362 1.805 L 14.209 1.805 C 14.199 1.805 14.191 1.801 14.184 1.794 C 14.177 1.787 14.173 1.778 14.173 1.767 L 14.173 1.161 L 13.983 1.518 C 13.978 1.527 13.971 1.535 13.963 1.542 C 13.955 1.549 13.945 1.553 13.932 1.553 L 13.861 1.553 C 13.848 1.553 13.838 1.549 13.83 1.542 C 13.822 1.535 13.815 1.527 13.81 1.518 L 13.62 1.161 L 13.62 1.767 C 13.62 1.778 13.616 1.787 13.609 1.794 C 13.602 1.801 13.594 1.805 13.584 1.805 L 13.431 1.805 M 14.674 1.805 C 14.663 1.805 14.654 1.801 14.647 1.794 C 14.64 1.787 14.637 1.778 14.637 1.767 L 14.637 0.792 C 14.637 0.781 14.64 0.772 14.647 0.765 C 14.654 0.758 14.663 0.755 14.674 0.755 L 14.844 0.755 C 14.855 0.755 14.864 0.758 14.871 0.765 C 14.878 0.772 14.881 0.781 14.881 0.792 L 14.881 1.767 C 14.881 1.778 14.878 1.787 14.871 1.794 C 14.864 1.801 14.855 1.805 14.844 1.805 L 14.674 1.805 M 15.156 1.805 C 15.145 1.805 15.136 1.801 15.129 1.794 C 15.122 1.787 15.118 1.778 15.118 1.767 L 15.118 0.792 C 15.118 0.781 15.122 0.772 15.129 0.765 C 15.136 0.758 15.145 0.755 15.156 0.755 L 15.322 0.755 C 15.333 0.755 15.342 0.758 15.349 0.765 C 15.356 0.772 15.36 0.781 15.36 0.792 L 15.36 1.604 L 15.825 1.604 C 15.836 1.604 15.845 1.607 15.852 1.614 C 15.859 1.621 15.862 1.63 15.862 1.641 L 15.862 1.767 C 15.862 1.778 15.859 1.787 15.852 1.794 C 15.845 1.801 15.836 1.805 15.825 1.805 L 15.156 1.805 M 16.053 1.805 C 16.042 1.805 16.033 1.801 16.026 1.794 C 16.019 1.787 16.015 1.778 16.015 1.767 L 16.015 0.792 C 16.015 0.781 16.019 0.772 16.026 0.765 C 16.033 0.758 16.042 0.755 16.053 0.755 L 16.732 0.755 C 16.743 0.755 16.752 0.758 16.759 0.765 C 16.766 0.772 16.77 0.781 16.77 0.792 L 16.77 0.912 C 16.77 0.922 16.766 0.931 16.759 0.938 C 16.752 0.945 16.743 0.948 16.732 0.948 L 16.246 0.948 L 16.246 1.184 L 16.699 1.184 C 16.71 1.184 16.719 1.187 16.726 1.194 C 16.733 1.201 16.737 1.21 16.737 1.221 L 16.737 1.332 C 16.737 1.342 16.733 1.351 16.726 1.358 C 16.719 1.365 16.71 1.368 16.699 1.368 L 16.246 1.368 L 16.246 1.611 L 16.744 1.611 C 16.755 1.611 16.764 1.615 16.771 1.622 C 16.778 1.629 16.782 1.638 16.782 1.649 L 16.782 1.767 C 16.782 1.778 16.778 1.787 16.771 1.794 C 16.764 1.801 16.755 1.805 16.744 1.805 L 16.053 1.805" fill-rule="nonzero" style="fill: rgb(255, 255, 255);"/>
  <path d="M 5.597 2.719 C 5.592 2.719 5.588 2.717 5.585 2.714 C 5.582 2.711 5.58 2.707 5.58 2.702 L 5.58 2.211 C 5.58 2.206 5.582 2.202 5.585 2.199 C 5.588 2.195 5.592 2.194 5.597 2.194 L 5.637 2.194 C 5.642 2.194 5.646 2.195 5.649 2.199 C 5.653 2.202 5.654 2.206 5.654 2.211 L 5.654 2.654 L 5.903 2.654 C 5.909 2.654 5.913 2.655 5.916 2.658 C 5.92 2.662 5.921 2.666 5.921 2.672 L 5.921 2.702 C 5.921 2.707 5.92 2.711 5.916 2.714 C 5.913 2.717 5.909 2.719 5.903 2.719 L 5.597 2.719 M 6.191 2.726 C 6.148 2.726 6.112 2.719 6.081 2.704 C 6.051 2.689 6.027 2.667 6.011 2.636 C 5.994 2.605 5.985 2.567 5.983 2.52 C 5.982 2.498 5.982 2.477 5.982 2.457 C 5.982 2.436 5.982 2.415 5.983 2.393 C 5.985 2.347 5.994 2.309 6.012 2.278 C 6.029 2.247 6.053 2.224 6.084 2.209 C 6.114 2.194 6.15 2.186 6.191 2.186 C 6.232 2.186 6.267 2.194 6.298 2.209 C 6.329 2.224 6.353 2.247 6.371 2.278 C 6.388 2.309 6.398 2.347 6.399 2.393 C 6.4 2.415 6.401 2.436 6.401 2.457 C 6.401 2.477 6.4 2.498 6.399 2.52 C 6.398 2.567 6.388 2.605 6.372 2.636 C 6.355 2.667 6.331 2.689 6.301 2.704 C 6.27 2.719 6.234 2.726 6.191 2.726 M 6.191 2.663 C 6.229 2.663 6.26 2.651 6.285 2.628 C 6.309 2.605 6.322 2.568 6.324 2.516 C 6.325 2.494 6.326 2.474 6.326 2.456 C 6.326 2.438 6.325 2.418 6.324 2.396 C 6.323 2.362 6.317 2.334 6.305 2.312 C 6.293 2.291 6.278 2.275 6.258 2.265 C 6.239 2.255 6.216 2.25 6.191 2.25 C 6.166 2.25 6.144 2.255 6.125 2.265 C 6.105 2.275 6.089 2.291 6.078 2.312 C 6.066 2.334 6.059 2.362 6.058 2.396 C 6.057 2.418 6.057 2.438 6.057 2.456 C 6.057 2.474 6.057 2.494 6.058 2.516 C 6.06 2.568 6.073 2.605 6.098 2.628 C 6.122 2.651 6.153 2.663 6.191 2.663 M 6.709 2.726 C 6.664 2.726 6.627 2.718 6.596 2.702 C 6.565 2.685 6.542 2.662 6.525 2.632 C 6.509 2.602 6.5 2.567 6.498 2.526 C 6.498 2.504 6.497 2.481 6.497 2.456 C 6.497 2.431 6.498 2.408 6.498 2.385 C 6.5 2.345 6.509 2.309 6.525 2.28 C 6.542 2.25 6.565 2.227 6.596 2.211 C 6.627 2.194 6.665 2.186 6.709 2.186 C 6.744 2.186 6.774 2.191 6.8 2.201 C 6.826 2.211 6.848 2.224 6.864 2.239 C 6.881 2.254 6.894 2.27 6.902 2.287 C 6.91 2.303 6.915 2.318 6.915 2.33 C 6.916 2.335 6.914 2.338 6.911 2.341 C 6.908 2.344 6.904 2.345 6.899 2.345 L 6.855 2.345 C 6.85 2.345 6.846 2.344 6.844 2.342 C 6.842 2.34 6.84 2.337 6.838 2.332 C 6.833 2.319 6.826 2.306 6.816 2.294 C 6.805 2.281 6.792 2.271 6.774 2.262 C 6.757 2.254 6.735 2.25 6.709 2.25 C 6.669 2.25 6.637 2.261 6.612 2.282 C 6.588 2.304 6.575 2.339 6.573 2.389 C 6.572 2.433 6.572 2.478 6.573 2.522 C 6.575 2.572 6.588 2.608 6.613 2.63 C 6.637 2.652 6.669 2.663 6.709 2.663 C 6.735 2.663 6.759 2.658 6.78 2.648 C 6.8 2.638 6.817 2.622 6.829 2.602 C 6.841 2.582 6.847 2.556 6.847 2.525 L 6.847 2.493 L 6.734 2.493 C 6.729 2.493 6.725 2.491 6.722 2.488 C 6.719 2.485 6.717 2.481 6.717 2.475 L 6.717 2.451 C 6.717 2.446 6.719 2.441 6.722 2.438 C 6.725 2.435 6.729 2.433 6.734 2.433 L 6.904 2.433 C 6.909 2.433 6.914 2.435 6.917 2.438 C 6.92 2.441 6.921 2.446 6.921 2.451 L 6.921 2.523 C 6.921 2.564 6.913 2.6 6.896 2.63 C 6.879 2.661 6.855 2.684 6.823 2.701 C 6.791 2.718 6.753 2.726 6.709 2.726 M 7.053 2.719 C 7.048 2.719 7.043 2.717 7.04 2.714 C 7.037 2.711 7.036 2.707 7.036 2.702 L 7.036 2.211 C 7.036 2.206 7.037 2.202 7.04 2.199 C 7.043 2.195 7.048 2.194 7.053 2.194 L 7.093 2.194 C 7.098 2.194 7.103 2.195 7.106 2.199 C 7.109 2.202 7.11 2.206 7.11 2.211 L 7.11 2.702 C 7.11 2.707 7.109 2.711 7.106 2.714 C 7.103 2.717 7.098 2.719 7.093 2.719 L 7.053 2.719 M 7.417 2.726 C 7.373 2.726 7.337 2.72 7.307 2.706 C 7.278 2.693 7.255 2.675 7.239 2.654 C 7.224 2.633 7.215 2.61 7.214 2.587 C 7.214 2.583 7.216 2.579 7.219 2.576 C 7.222 2.573 7.226 2.571 7.231 2.571 L 7.269 2.571 C 7.275 2.571 7.28 2.573 7.283 2.576 C 7.286 2.579 7.288 2.582 7.289 2.586 C 7.292 2.598 7.298 2.61 7.307 2.622 C 7.317 2.633 7.33 2.643 7.348 2.651 C 7.366 2.659 7.389 2.663 7.417 2.663 C 7.46 2.663 7.491 2.655 7.512 2.64 C 7.532 2.624 7.542 2.604 7.542 2.579 C 7.542 2.561 7.537 2.547 7.526 2.536 C 7.515 2.525 7.499 2.516 7.477 2.507 C 7.455 2.499 7.426 2.49 7.391 2.48 C 7.355 2.469 7.325 2.458 7.301 2.445 C 7.277 2.433 7.259 2.417 7.247 2.399 C 7.235 2.38 7.229 2.357 7.229 2.328 C 7.229 2.301 7.237 2.277 7.251 2.256 C 7.266 2.234 7.287 2.218 7.314 2.205 C 7.342 2.193 7.375 2.186 7.413 2.186 C 7.444 2.186 7.471 2.19 7.494 2.199 C 7.518 2.207 7.537 2.218 7.553 2.232 C 7.568 2.245 7.58 2.26 7.588 2.276 C 7.596 2.292 7.6 2.307 7.601 2.322 C 7.601 2.326 7.599 2.329 7.597 2.332 C 7.594 2.335 7.59 2.337 7.585 2.337 L 7.545 2.337 C 7.542 2.337 7.538 2.336 7.534 2.334 C 7.53 2.332 7.528 2.328 7.526 2.323 C 7.523 2.302 7.511 2.285 7.491 2.271 C 7.471 2.257 7.445 2.25 7.413 2.25 C 7.381 2.25 7.354 2.256 7.334 2.269 C 7.314 2.281 7.304 2.301 7.304 2.327 C 7.304 2.344 7.308 2.358 7.318 2.37 C 7.327 2.381 7.342 2.391 7.363 2.399 C 7.383 2.408 7.41 2.417 7.443 2.426 C 7.483 2.437 7.516 2.449 7.541 2.461 C 7.567 2.473 7.586 2.489 7.598 2.507 C 7.61 2.525 7.616 2.549 7.616 2.577 C 7.616 2.609 7.608 2.635 7.592 2.658 C 7.575 2.68 7.552 2.697 7.522 2.709 C 7.492 2.72 7.457 2.726 7.417 2.726 M 7.848 2.719 C 7.843 2.719 7.839 2.717 7.836 2.714 C 7.832 2.711 7.831 2.707 7.831 2.702 L 7.831 2.261 L 7.687 2.261 C 7.682 2.261 7.678 2.259 7.674 2.256 C 7.671 2.252 7.67 2.248 7.67 2.243 L 7.67 2.212 C 7.67 2.206 7.671 2.202 7.674 2.199 C 7.678 2.195 7.682 2.194 7.687 2.194 L 8.048 2.194 C 8.054 2.194 8.058 2.195 8.061 2.199 C 8.065 2.202 8.066 2.206 8.066 2.212 L 8.066 2.243 C 8.066 2.248 8.065 2.252 8.061 2.256 C 8.058 2.259 8.054 2.261 8.048 2.261 L 7.905 2.261 L 7.905 2.702 C 7.905 2.707 7.903 2.711 7.9 2.714 C 7.897 2.717 7.893 2.719 7.887 2.719 L 7.848 2.719 M 8.175 2.719 C 8.17 2.719 8.165 2.717 8.162 2.714 C 8.159 2.711 8.158 2.707 8.158 2.702 L 8.158 2.211 C 8.158 2.206 8.159 2.202 8.162 2.199 C 8.165 2.195 8.17 2.194 8.175 2.194 L 8.215 2.194 C 8.22 2.194 8.225 2.195 8.228 2.199 C 8.231 2.202 8.232 2.206 8.232 2.211 L 8.232 2.702 C 8.232 2.707 8.231 2.711 8.228 2.714 C 8.225 2.717 8.22 2.719 8.215 2.719 L 8.175 2.719 M 8.559 2.726 C 8.513 2.726 8.475 2.718 8.445 2.701 C 8.414 2.684 8.392 2.66 8.376 2.63 C 8.361 2.599 8.352 2.564 8.351 2.523 C 8.35 2.503 8.35 2.481 8.35 2.457 C 8.35 2.434 8.35 2.411 8.351 2.39 C 8.352 2.349 8.361 2.314 8.376 2.283 C 8.392 2.253 8.414 2.229 8.445 2.212 C 8.475 2.195 8.513 2.186 8.559 2.186 C 8.594 2.186 8.624 2.191 8.65 2.201 C 8.676 2.21 8.697 2.223 8.715 2.239 C 8.732 2.255 8.745 2.273 8.754 2.292 C 8.763 2.312 8.768 2.333 8.769 2.354 C 8.77 2.358 8.768 2.362 8.765 2.365 C 8.762 2.368 8.758 2.369 8.753 2.369 L 8.712 2.369 C 8.708 2.369 8.704 2.368 8.7 2.366 C 8.697 2.363 8.695 2.359 8.693 2.352 C 8.685 2.313 8.669 2.286 8.646 2.272 C 8.622 2.257 8.594 2.25 8.559 2.25 C 8.519 2.25 8.487 2.261 8.463 2.284 C 8.44 2.307 8.427 2.343 8.426 2.393 C 8.424 2.434 8.424 2.476 8.426 2.519 C 8.427 2.569 8.44 2.606 8.463 2.628 C 8.487 2.651 8.519 2.663 8.559 2.663 C 8.594 2.663 8.622 2.655 8.646 2.641 C 8.669 2.626 8.685 2.6 8.693 2.561 C 8.695 2.554 8.697 2.55 8.7 2.547 C 8.704 2.545 8.708 2.543 8.712 2.543 L 8.753 2.543 C 8.758 2.543 8.762 2.545 8.765 2.547 C 8.768 2.55 8.77 2.554 8.769 2.558 C 8.768 2.579 8.763 2.6 8.754 2.62 C 8.745 2.64 8.732 2.658 8.715 2.674 C 8.697 2.69 8.676 2.703 8.65 2.712 C 8.624 2.722 8.594 2.726 8.559 2.726 M 9.046 2.726 C 9.002 2.726 8.966 2.72 8.936 2.706 C 8.907 2.693 8.884 2.675 8.868 2.654 C 8.853 2.633 8.844 2.61 8.843 2.587 C 8.843 2.583 8.845 2.579 8.848 2.576 C 8.851 2.573 8.855 2.571 8.86 2.571 L 8.898 2.571 C 8.904 2.571 8.909 2.573 8.912 2.576 C 8.915 2.579 8.917 2.582 8.918 2.586 C 8.921 2.598 8.927 2.61 8.936 2.622 C 8.946 2.633 8.959 2.643 8.977 2.651 C 8.995 2.659 9.018 2.663 9.046 2.663 C 9.089 2.663 9.12 2.655 9.141 2.64 C 9.161 2.624 9.171 2.604 9.171 2.579 C 9.171 2.561 9.166 2.547 9.155 2.536 C 9.144 2.525 9.128 2.516 9.106 2.507 C 9.084 2.499 9.055 2.49 9.02 2.48 C 8.984 2.469 8.954 2.458 8.93 2.445 C 8.906 2.433 8.888 2.417 8.876 2.399 C 8.864 2.38 8.858 2.357 8.858 2.328 C 8.858 2.301 8.866 2.277 8.88 2.256 C 8.895 2.234 8.916 2.218 8.943 2.205 C 8.971 2.193 9.004 2.186 9.042 2.186 C 9.073 2.186 9.1 2.19 9.123 2.199 C 9.147 2.207 9.166 2.218 9.182 2.232 C 9.197 2.245 9.209 2.26 9.217 2.276 C 9.225 2.292 9.229 2.307 9.23 2.322 C 9.23 2.326 9.228 2.329 9.226 2.332 C 9.223 2.335 9.219 2.337 9.214 2.337 L 9.174 2.337 C 9.171 2.337 9.167 2.336 9.163 2.334 C 9.159 2.332 9.157 2.328 9.155 2.323 C 9.152 2.302 9.14 2.285 9.12 2.271 C 9.1 2.257 9.074 2.25 9.042 2.25 C 9.01 2.25 8.983 2.256 8.963 2.269 C 8.943 2.281 8.933 2.301 8.933 2.327 C 8.933 2.344 8.937 2.358 8.947 2.37 C 8.956 2.381 8.971 2.391 8.992 2.399 C 9.012 2.408 9.039 2.417 9.072 2.426 C 9.112 2.437 9.145 2.449 9.17 2.461 C 9.196 2.473 9.215 2.489 9.227 2.507 C 9.239 2.525 9.245 2.549 9.245 2.577 C 9.245 2.609 9.237 2.635 9.221 2.658 C 9.204 2.68 9.181 2.697 9.151 2.709 C 9.121 2.72 9.086 2.726 9.046 2.726 M 9.56 2.719 C 9.554 2.719 9.55 2.717 9.547 2.714 C 9.544 2.711 9.542 2.707 9.542 2.702 L 9.542 2.211 C 9.542 2.206 9.544 2.202 9.547 2.199 C 9.55 2.195 9.554 2.194 9.56 2.194 L 9.599 2.194 C 9.604 2.194 9.608 2.195 9.612 2.199 C 9.615 2.202 9.617 2.206 9.617 2.211 L 9.617 2.654 L 9.866 2.654 C 9.871 2.654 9.875 2.655 9.879 2.658 C 9.882 2.662 9.884 2.666 9.884 2.672 L 9.884 2.702 C 9.884 2.707 9.882 2.711 9.879 2.714 C 9.875 2.717 9.871 2.719 9.866 2.719 L 9.56 2.719 M 9.989 2.719 C 9.984 2.719 9.98 2.717 9.977 2.714 C 9.974 2.711 9.972 2.707 9.972 2.702 L 9.972 2.211 C 9.972 2.206 9.974 2.202 9.977 2.199 C 9.98 2.195 9.984 2.194 9.989 2.194 L 10.029 2.194 C 10.034 2.194 10.038 2.195 10.041 2.199 C 10.045 2.202 10.046 2.206 10.046 2.211 L 10.046 2.654 L 10.295 2.654 C 10.301 2.654 10.305 2.655 10.308 2.658 C 10.312 2.662 10.313 2.666 10.313 2.672 L 10.313 2.702 C 10.313 2.707 10.312 2.711 10.308 2.714 C 10.305 2.717 10.301 2.719 10.295 2.719 L 9.989 2.719 M 10.583 2.726 C 10.537 2.726 10.499 2.718 10.469 2.701 C 10.439 2.684 10.416 2.66 10.4 2.63 C 10.385 2.599 10.376 2.564 10.375 2.523 C 10.374 2.503 10.374 2.481 10.374 2.457 C 10.374 2.434 10.374 2.411 10.375 2.39 C 10.376 2.349 10.385 2.314 10.4 2.283 C 10.416 2.253 10.439 2.229 10.469 2.212 C 10.499 2.195 10.537 2.186 10.583 2.186 C 10.618 2.186 10.648 2.191 10.674 2.201 C 10.7 2.21 10.722 2.223 10.739 2.239 C 10.756 2.255 10.769 2.273 10.778 2.292 C 10.787 2.312 10.792 2.333 10.793 2.354 C 10.794 2.358 10.792 2.362 10.789 2.365 C 10.786 2.368 10.782 2.369 10.778 2.369 L 10.736 2.369 C 10.732 2.369 10.728 2.368 10.725 2.366 C 10.721 2.363 10.719 2.359 10.718 2.352 C 10.709 2.313 10.693 2.286 10.67 2.272 C 10.647 2.257 10.618 2.25 10.583 2.25 C 10.543 2.25 10.511 2.261 10.487 2.284 C 10.464 2.307 10.451 2.343 10.45 2.393 C 10.448 2.434 10.448 2.476 10.45 2.519 C 10.451 2.569 10.464 2.606 10.487 2.628 C 10.511 2.651 10.543 2.663 10.583 2.663 C 10.618 2.663 10.647 2.655 10.67 2.641 C 10.693 2.626 10.709 2.6 10.718 2.561 C 10.719 2.554 10.721 2.55 10.725 2.547 C 10.728 2.545 10.732 2.543 10.736 2.543 L 10.778 2.543 C 10.782 2.543 10.786 2.545 10.789 2.547 C 10.792 2.55 10.794 2.554 10.793 2.558 C 10.792 2.579 10.787 2.6 10.778 2.62 C 10.769 2.64 10.756 2.658 10.739 2.674 C 10.722 2.69 10.7 2.703 10.674 2.712 C 10.648 2.722 10.618 2.726 10.583 2.726" fill-rule="nonzero" style="fill: rgb(255, 255, 255);"/>
</svg>