<?xml version="1.0" encoding="utf-8"?>
<svg xmlns="http://www.w3.org/2000/svg" viewBox="0.191 0.704 4.743 2.022" width="4.743px" height="2.022px">
  <path d="M 1.865 2.071 C 1.684 2.071 1.538 2.217 1.538 2.399 C 1.538 2.58 1.684 2.726 1.865 2.726 C 2.046 2.726 2.193 2.58 2.193 2.399 C 2.193 2.217 2.046 2.071 1.865 2.071 M 1.865 2.55 C 1.81 2.551 1.76 2.522 1.732 2.475 C 1.705 2.427 1.705 2.369 1.732 2.322 C 1.76 2.275 1.81 2.246 1.865 2.247 C 1.948 2.248 2.014 2.316 2.014 2.399 C 2.014 2.481 1.948 2.549 1.865 2.55 M 4.017 2.071 C 3.836 2.071 3.69 2.217 3.69 2.399 C 3.69 2.58 3.836 2.726 4.017 2.726 C 4.199 2.726 4.345 2.58 4.345 2.399 C 4.345 2.217 4.199 2.071 4.017 2.071 M 4.017 2.55 C 3.934 2.55 3.866 2.482 3.866 2.399 C 3.866 2.358 3.881 2.32 3.91 2.291 C 3.938 2.263 3.977 2.247 4.017 2.247 C 4.058 2.247 4.096 2.263 4.124 2.291 C 4.153 2.32 4.169 2.358 4.169 2.399 C 4.169 2.482 4.101 2.55 4.017 2.55 M 0.841 0.704 L 0.286 0.704 C 0.232 0.704 0.191 0.733 0.191 0.77 L 0.191 0.79 C 0.191 0.828 0.232 0.857 0.286 0.857 L 0.841 0.857 C 0.895 0.857 0.936 0.828 0.936 0.79 L 0.936 0.77 C 0.936 0.733 0.895 0.704 0.841 0.704 M 0.759 1.933 L 0.355 1.933 C 0.301 1.933 0.26 1.962 0.26 2 L 0.26 2.02 C 0.26 2.057 0.301 2.086 0.355 2.086 L 0.759 2.086 C 0.814 2.086 0.855 2.057 0.855 2.02 L 0.855 2 C 0.855 1.962 0.814 1.933 0.759 1.933 M 4.88 2.091 L 4.844 2.091 C 4.838 1.964 4.827 2.028 4.813 1.916 C 4.802 1.829 4.748 1.753 4.669 1.713 L 4.604 1.682 L 4.146 0.982 C 4.106 0.923 4.039 0.887 3.967 0.887 L 3.259 0.887 L 3.259 0.761 C 3.259 0.747 3.253 0.732 3.243 0.721 C 3.231 0.711 3.217 0.704 3.202 0.704 L 1.407 0.704 C 1.403 0.704 1.399 0.704 1.396 0.705 L 1.18 0.705 C 1.125 0.705 1.084 0.733 1.084 0.772 L 1.084 0.792 C 1.084 0.829 1.125 0.857 1.18 0.857 L 2.097 0.857 C 2.152 0.857 2.193 0.886 2.193 0.924 L 2.193 0.944 C 2.193 0.982 2.152 1.011 2.097 1.011 L 0.812 1.011 C 0.757 1.011 0.717 1.039 0.717 1.077 L 0.717 1.097 C 0.717 1.135 0.757 1.164 0.812 1.164 L 1.723 1.164 C 1.777 1.164 1.818 1.192 1.818 1.23 L 1.818 1.25 C 1.818 1.288 1.777 1.316 1.723 1.316 L 1.067 1.316 C 1.013 1.316 0.972 1.345 0.972 1.383 L 0.972 1.403 C 0.972 1.44 1.013 1.469 1.067 1.469 L 2.279 1.469 C 2.333 1.469 2.374 1.498 2.374 1.536 L 2.374 1.556 C 2.374 1.593 2.333 1.622 2.279 1.622 L 0.685 1.622 C 0.63 1.622 0.589 1.65 0.589 1.689 L 0.589 1.709 C 0.589 1.746 0.63 1.775 0.685 1.775 L 1.566 1.775 C 1.62 1.775 1.661 1.803 1.661 1.841 L 1.661 1.861 C 1.661 1.899 1.62 1.928 1.566 1.928 L 1.076 1.928 C 1.022 1.928 0.981 1.956 0.981 1.994 L 0.981 2.014 C 0.981 2.052 1.022 2.081 1.076 2.081 L 1.265 2.081 C 1.32 2.081 1.361 2.11 1.361 2.147 L 1.361 2.167 C 1.361 2.205 1.32 2.234 1.265 2.234 L 1.194 2.236 L 1.186 2.236 C 1.184 2.236 1.182 2.236 1.181 2.236 L 0.936 2.236 C 0.882 2.236 0.841 2.265 0.841 2.305 L 0.841 2.324 C 0.841 2.364 0.882 2.394 0.936 2.394 L 1.181 2.394 C 1.182 2.394 1.184 2.393 1.186 2.393 L 1.252 2.393 L 1.469 2.393 C 1.469 2.174 1.646 1.997 1.865 1.997 C 2.084 1.997 2.261 2.174 2.261 2.393 L 3.202 2.393 L 3.621 2.393 C 3.621 2.174 3.798 1.997 4.017 1.997 C 4.236 1.997 4.414 2.174 4.414 2.393 L 4.88 2.393 C 4.91 2.393 4.934 2.369 4.934 2.339 L 4.934 2.146 C 4.934 2.116 4.91 2.091 4.88 2.091 M 4.378 1.684 L 3.471 1.684 C 3.453 1.684 3.439 1.669 3.439 1.652 L 3.439 1.05 C 3.439 1.032 3.453 1.018 3.471 1.018 L 3.969 1.018 C 3.99 1.018 4.006 1.023 4.022 1.05 L 4.411 1.652 C 4.42 1.676 4.4 1.685 4.378 1.684 M 0.466 1.318 C 0.411 1.318 0.371 1.347 0.371 1.385 L 0.371 1.405 C 0.371 1.442 0.411 1.471 0.466 1.471 L 0.664 1.471 C 0.718 1.471 0.759 1.442 0.759 1.405 L 0.759 1.385 C 0.759 1.347 0.718 1.318 0.664 1.318 L 0.466 1.318 Z M 0.501 2.241 C 0.447 2.241 0.407 2.27 0.407 2.307 L 0.407 2.326 C 0.407 2.365 0.447 2.394 0.501 2.394 L 0.597 2.394 C 0.651 2.394 0.692 2.365 0.692 2.326 L 0.692 2.307 C 0.692 2.27 0.651 2.241 0.597 2.241 L 0.501 2.241 Z" fill-rule="nonzero" style="fill: rgb(0, 82, 218);"/>
</svg>