<?xml version="1.0" encoding="utf-8"?>
<svg xmlns="http://www.w3.org/2000/svg" version="1.1" viewBox="0 0 12.98449589837824 8.076543513209925">
  <path d="M 5.055 3.666 C 4.682 3.666 4.38 3.968 4.38 4.341 C 4.38 4.714 4.682 5.016 5.055 5.016 C 5.428 5.016 5.73 4.714 5.73 4.341 C 5.73 3.968 5.428 3.666 5.055 3.666 M 5.055 4.654 C 4.942 4.655 4.838 4.596 4.781 4.498 C 4.724 4.401 4.724 4.281 4.781 4.183 C 4.838 4.086 4.942 4.027 5.055 4.028 C 5.225 4.031 5.362 4.171 5.362 4.341 C 5.362 4.511 5.225 4.651 5.055 4.654 M 9.49 3.666 C 9.117 3.666 8.815 3.968 8.815 4.341 C 8.815 4.714 9.117 5.016 9.49 5.016 C 9.863 5.016 10.165 4.714 10.165 4.341 C 10.165 3.968 9.863 3.666 9.49 3.666 M 9.49 4.654 C 9.317 4.654 9.177 4.514 9.177 4.341 C 9.177 4.258 9.21 4.178 9.269 4.12 C 9.328 4.061 9.407 4.028 9.49 4.028 C 9.573 4.028 9.653 4.061 9.711 4.12 C 9.77 4.178 9.803 4.258 9.803 4.341 C 9.803 4.514 9.663 4.654 9.49 4.654 M 2.944 0.849 L 1.801 0.849 C 1.689 0.849 1.605 0.908 1.605 0.986 L 1.605 1.027 C 1.605 1.105 1.689 1.164 1.801 1.164 L 2.944 1.164 C 3.056 1.164 3.141 1.105 3.141 1.027 L 3.141 0.986 C 3.141 0.908 3.056 0.849 2.944 0.849 M 2.777 3.382 L 1.943 3.382 C 1.831 3.382 1.746 3.441 1.746 3.519 L 1.746 3.56 C 1.746 3.638 1.831 3.697 1.943 3.697 L 2.777 3.697 C 2.889 3.697 2.973 3.638 2.973 3.56 L 2.973 3.519 C 2.973 3.441 2.889 3.382 2.777 3.382 M 11.268 3.708 L 11.193 3.708 C 11.181 3.446 11.16 3.578 11.13 3.347 C 11.107 3.167 10.995 3.01 10.832 2.929 L 10.7 2.864 L 9.755 1.423 C 9.673 1.3 9.535 1.226 9.387 1.226 L 7.928 1.226 L 7.928 0.968 C 7.928 0.937 7.916 0.906 7.894 0.884 C 7.871 0.862 7.841 0.849 7.809 0.849 L 4.111 0.849 C 4.103 0.849 4.095 0.85 4.088 0.851 L 3.642 0.851 C 3.53 0.851 3.446 0.91 3.446 0.988 L 3.446 1.029 C 3.446 1.107 3.53 1.166 3.642 1.166 L 5.534 1.166 C 5.645 1.166 5.73 1.225 5.73 1.303 L 5.73 1.344 C 5.73 1.422 5.645 1.481 5.534 1.481 L 2.884 1.481 C 2.772 1.481 2.688 1.54 2.688 1.618 L 2.688 1.659 C 2.688 1.737 2.772 1.796 2.884 1.796 L 4.762 1.796 C 4.873 1.796 4.958 1.855 4.958 1.933 L 4.958 1.974 C 4.958 2.052 4.873 2.111 4.762 2.111 L 3.41 2.111 C 3.299 2.111 3.214 2.17 3.214 2.248 L 3.214 2.289 C 3.214 2.367 3.299 2.426 3.41 2.426 L 5.907 2.426 C 6.019 2.426 6.103 2.485 6.103 2.563 L 6.103 2.604 C 6.103 2.682 6.019 2.741 5.907 2.741 L 2.622 2.741 C 2.51 2.741 2.426 2.8 2.426 2.878 L 2.426 2.919 C 2.426 2.997 2.51 3.056 2.622 3.056 L 4.438 3.056 C 4.55 3.056 4.634 3.115 4.634 3.193 L 4.634 3.234 C 4.634 3.312 4.55 3.371 4.438 3.371 L 3.429 3.371 C 3.317 3.371 3.233 3.43 3.233 3.508 L 3.233 3.549 C 3.233 3.627 3.317 3.686 3.429 3.686 L 3.818 3.686 C 3.93 3.686 4.015 3.745 4.015 3.823 L 4.015 3.864 C 4.015 3.942 3.931 4.003 3.819 4.003 L 3.672 4.006 L 3.656 4.006 C 3.652 4.006 3.648 4.006 3.645 4.006 L 3.14 4.006 C 3.028 4.006 2.944 4.067 2.944 4.147 L 2.944 4.189 C 2.944 4.27 3.028 4.331 3.14 4.331 L 3.645 4.331 C 3.648 4.331 3.652 4.33 3.656 4.33 L 3.791 4.33 L 4.237 4.33 C 4.237 3.879 4.603 3.513 5.055 3.513 C 5.506 3.513 5.872 3.879 5.872 4.33 L 7.809 4.33 L 7.81 4.33 L 8.672 4.33 C 8.672 3.879 9.038 3.513 9.49 3.513 C 9.942 3.513 10.308 3.879 10.308 4.33 L 11.268 4.33 C 11.33 4.33 11.38 4.28 11.38 4.218 L 11.38 3.821 C 11.38 3.759 11.33 3.708 11.268 3.708 M 10.234 2.868 L 8.364 2.868 C 8.327 2.868 8.298 2.838 8.298 2.802 L 8.298 1.562 C 8.298 1.525 8.327 1.496 8.364 1.496 L 9.389 1.496 C 9.433 1.496 9.466 1.506 9.5 1.562 L 10.3 2.802 C 10.321 2.853 10.279 2.87 10.234 2.868 M 2.171 2.115 C 2.059 2.115 1.975 2.174 1.975 2.253 L 1.975 2.293 C 1.975 2.371 2.059 2.43 2.171 2.43 L 2.579 2.43 C 2.691 2.43 2.776 2.371 2.776 2.293 L 2.776 2.253 C 2.776 2.174 2.691 2.115 2.579 2.115 L 2.171 2.115 Z M 2.245 4.016 C 2.133 4.016 2.049 4.075 2.049 4.153 L 2.049 4.193 C 2.049 4.272 2.133 4.331 2.245 4.331 L 2.441 4.331 C 2.553 4.331 2.637 4.272 2.637 4.193 L 2.637 4.153 C 2.637 4.075 2.553 4.016 2.441 4.016 L 2.245 4.016 Z" fill-rule="nonzero" style="fill: rgb(0, 82, 218);"/>
  <path d="M 0.899 6.331 C 0.89 6.331 0.882 6.328 0.876 6.321 C 0.87 6.315 0.867 6.307 0.867 6.299 C 0.867 6.294 0.868 6.29 0.869 6.286 L 1.226 5.321 C 1.229 5.31 1.235 5.301 1.244 5.293 C 1.253 5.285 1.265 5.281 1.281 5.281 L 1.473 5.281 C 1.489 5.281 1.502 5.285 1.511 5.293 C 1.52 5.301 1.526 5.31 1.529 5.321 L 1.886 6.286 C 1.887 6.29 1.887 6.294 1.887 6.299 C 1.887 6.307 1.884 6.315 1.878 6.321 C 1.872 6.328 1.865 6.331 1.856 6.331 L 1.7 6.331 C 1.685 6.331 1.674 6.327 1.667 6.32 C 1.66 6.313 1.655 6.307 1.653 6.301 L 1.589 6.133 L 1.166 6.133 L 1.101 6.301 C 1.099 6.307 1.095 6.313 1.088 6.32 C 1.081 6.327 1.07 6.331 1.055 6.331 L 0.899 6.331 M 1.221 5.939 L 1.532 5.939 L 1.377 5.507 L 1.221 5.939 M 2.364 6.346 C 2.289 6.346 2.223 6.334 2.167 6.309 C 2.111 6.285 2.068 6.249 2.037 6.203 C 2.006 6.157 1.99 6.103 1.99 6.041 C 1.99 5.997 1.999 5.958 2.017 5.924 C 2.034 5.89 2.058 5.86 2.089 5.832 C 2.12 5.805 2.156 5.779 2.196 5.756 C 2.155 5.712 2.126 5.672 2.108 5.636 C 2.091 5.6 2.082 5.563 2.082 5.525 C 2.082 5.479 2.094 5.437 2.118 5.398 C 2.142 5.359 2.177 5.327 2.224 5.303 C 2.271 5.278 2.329 5.266 2.397 5.266 C 2.461 5.266 2.515 5.278 2.56 5.301 C 2.605 5.325 2.64 5.356 2.664 5.395 C 2.688 5.434 2.7 5.476 2.7 5.522 C 2.7 5.563 2.691 5.6 2.672 5.633 C 2.654 5.665 2.628 5.694 2.596 5.72 C 2.564 5.746 2.528 5.771 2.487 5.795 L 2.683 5.992 C 2.693 5.975 2.706 5.951 2.721 5.921 C 2.736 5.891 2.749 5.853 2.761 5.806 C 2.764 5.79 2.775 5.782 2.793 5.782 L 2.923 5.782 C 2.932 5.782 2.94 5.785 2.945 5.79 C 2.951 5.796 2.953 5.803 2.953 5.812 C 2.952 5.831 2.948 5.853 2.94 5.879 C 2.932 5.904 2.921 5.931 2.907 5.959 C 2.893 5.987 2.877 6.014 2.86 6.041 C 2.843 6.068 2.826 6.093 2.809 6.116 L 2.973 6.281 C 2.98 6.289 2.983 6.297 2.983 6.304 C 2.983 6.312 2.981 6.318 2.976 6.323 C 2.971 6.328 2.964 6.331 2.955 6.331 L 2.782 6.331 C 2.772 6.331 2.764 6.329 2.758 6.326 C 2.752 6.322 2.747 6.319 2.742 6.316 L 2.667 6.244 C 2.627 6.277 2.582 6.302 2.533 6.32 C 2.483 6.337 2.427 6.346 2.364 6.346 M 2.364 6.173 C 2.397 6.173 2.428 6.168 2.458 6.158 C 2.487 6.147 2.514 6.13 2.539 6.106 L 2.317 5.888 C 2.286 5.905 2.26 5.926 2.238 5.949 C 2.216 5.973 2.205 6.001 2.205 6.034 C 2.205 6.063 2.212 6.088 2.227 6.109 C 2.242 6.13 2.262 6.146 2.287 6.157 C 2.311 6.168 2.337 6.173 2.364 6.173 M 2.37 5.671 C 2.395 5.657 2.418 5.643 2.439 5.63 C 2.46 5.616 2.476 5.601 2.488 5.585 C 2.5 5.568 2.506 5.549 2.506 5.528 C 2.506 5.497 2.496 5.473 2.475 5.455 C 2.454 5.437 2.428 5.428 2.397 5.428 C 2.368 5.428 2.342 5.437 2.32 5.455 C 2.298 5.473 2.287 5.497 2.287 5.528 C 2.287 5.542 2.29 5.556 2.295 5.57 C 2.3 5.583 2.308 5.598 2.32 5.614 C 2.332 5.63 2.349 5.649 2.37 5.671 M 3.492 6.346 C 3.436 6.346 3.383 6.339 3.333 6.325 C 3.283 6.311 3.238 6.29 3.199 6.261 C 3.16 6.233 3.13 6.197 3.107 6.155 C 3.085 6.113 3.072 6.064 3.07 6.008 C 3.07 5.999 3.073 5.992 3.079 5.985 C 3.085 5.979 3.093 5.975 3.103 5.975 L 3.274 5.975 C 3.287 5.975 3.298 5.979 3.305 5.986 C 3.313 5.993 3.318 6.003 3.322 6.016 C 3.327 6.048 3.338 6.074 3.354 6.094 C 3.37 6.114 3.39 6.129 3.415 6.138 C 3.439 6.148 3.467 6.152 3.498 6.152 C 3.555 6.152 3.599 6.134 3.629 6.097 C 3.66 6.06 3.675 6.007 3.675 5.939 L 3.675 5.48 L 3.175 5.48 C 3.165 5.48 3.157 5.477 3.15 5.47 C 3.143 5.463 3.139 5.454 3.139 5.444 L 3.139 5.318 C 3.139 5.307 3.143 5.298 3.15 5.291 C 3.157 5.284 3.165 5.281 3.175 5.281 L 3.882 5.281 C 3.893 5.281 3.902 5.284 3.909 5.291 C 3.916 5.298 3.919 5.307 3.919 5.318 L 3.919 5.945 C 3.919 6.031 3.901 6.104 3.865 6.164 C 3.829 6.223 3.779 6.268 3.715 6.299 C 3.651 6.33 3.577 6.346 3.492 6.346 M 4.531 6.331 C 4.52 6.331 4.511 6.327 4.504 6.32 C 4.497 6.313 4.494 6.304 4.494 6.293 L 4.494 5.318 C 4.494 5.307 4.497 5.298 4.504 5.291 C 4.511 5.284 4.52 5.281 4.531 5.281 L 4.698 5.281 C 4.709 5.281 4.718 5.284 4.725 5.291 C 4.732 5.298 4.735 5.307 4.735 5.318 L 4.735 6.13 L 5.2 6.13 C 5.211 6.13 5.22 6.133 5.227 6.14 C 5.234 6.147 5.238 6.156 5.238 6.167 L 5.238 6.293 C 5.238 6.304 5.234 6.313 5.227 6.32 C 5.22 6.327 5.211 6.331 5.2 6.331 L 4.531 6.331 M 5.329 6.331 C 5.32 6.331 5.313 6.328 5.307 6.321 C 5.301 6.315 5.298 6.307 5.298 6.299 C 5.298 6.294 5.298 6.29 5.299 6.286 L 5.656 5.321 C 5.659 5.31 5.665 5.301 5.674 5.293 C 5.683 5.285 5.696 5.281 5.712 5.281 L 5.904 5.281 C 5.92 5.281 5.932 5.285 5.941 5.293 C 5.95 5.301 5.956 5.31 5.959 5.321 L 6.316 6.286 C 6.317 6.29 6.318 6.294 6.318 6.299 C 6.318 6.307 6.315 6.315 6.309 6.321 C 6.303 6.328 6.295 6.331 6.286 6.331 L 6.13 6.331 C 6.115 6.331 6.104 6.327 6.097 6.32 C 6.09 6.313 6.086 6.307 6.084 6.301 L 6.019 6.133 L 5.596 6.133 L 5.532 6.301 C 5.53 6.307 5.525 6.313 5.518 6.32 C 5.511 6.327 5.5 6.331 5.485 6.331 L 5.329 6.331 M 5.652 5.939 L 5.962 5.939 L 5.808 5.507 L 5.652 5.939 M 6.823 6.346 C 6.727 6.346 6.647 6.332 6.583 6.304 C 6.518 6.276 6.469 6.239 6.436 6.194 C 6.403 6.149 6.386 6.101 6.384 6.05 C 6.384 6.042 6.387 6.035 6.393 6.029 C 6.399 6.022 6.406 6.019 6.415 6.019 L 6.576 6.019 C 6.589 6.019 6.599 6.022 6.606 6.027 C 6.613 6.033 6.619 6.039 6.625 6.047 C 6.632 6.064 6.644 6.081 6.659 6.097 C 6.675 6.113 6.696 6.126 6.723 6.137 C 6.75 6.147 6.783 6.152 6.823 6.152 C 6.888 6.152 6.937 6.142 6.97 6.121 C 7.002 6.1 7.018 6.071 7.018 6.035 C 7.018 6.009 7.01 5.988 6.992 5.972 C 6.975 5.956 6.947 5.942 6.91 5.929 C 6.872 5.916 6.822 5.902 6.76 5.887 C 6.685 5.871 6.622 5.85 6.569 5.825 C 6.517 5.799 6.477 5.766 6.451 5.726 C 6.424 5.685 6.411 5.635 6.411 5.575 C 6.411 5.515 6.427 5.462 6.46 5.415 C 6.493 5.369 6.54 5.332 6.6 5.306 C 6.66 5.279 6.731 5.266 6.814 5.266 C 6.881 5.266 6.941 5.275 6.992 5.293 C 7.044 5.311 7.087 5.334 7.121 5.363 C 7.156 5.392 7.182 5.423 7.2 5.456 C 7.218 5.489 7.227 5.521 7.228 5.552 C 7.228 5.56 7.225 5.568 7.219 5.574 C 7.213 5.581 7.206 5.584 7.197 5.584 L 7.029 5.584 C 7.019 5.584 7.01 5.582 7.002 5.578 C 6.994 5.574 6.987 5.567 6.982 5.557 C 6.976 5.531 6.959 5.508 6.929 5.489 C 6.9 5.469 6.861 5.459 6.814 5.459 C 6.765 5.459 6.727 5.468 6.698 5.486 C 6.67 5.504 6.655 5.532 6.655 5.569 C 6.655 5.593 6.663 5.613 6.677 5.63 C 6.692 5.646 6.716 5.661 6.751 5.673 C 6.785 5.686 6.831 5.699 6.888 5.714 C 6.976 5.732 7.047 5.754 7.102 5.779 C 7.157 5.804 7.198 5.836 7.224 5.876 C 7.25 5.915 7.263 5.965 7.263 6.025 C 7.263 6.092 7.244 6.149 7.207 6.197 C 7.169 6.245 7.118 6.282 7.052 6.308 C 6.987 6.333 6.91 6.346 6.823 6.346 M 7.696 6.331 C 7.685 6.331 7.676 6.327 7.669 6.32 C 7.662 6.313 7.659 6.304 7.659 6.293 L 7.659 5.489 L 7.386 5.489 C 7.376 5.489 7.367 5.486 7.36 5.479 C 7.353 5.472 7.35 5.463 7.35 5.453 L 7.35 5.318 C 7.35 5.307 7.353 5.298 7.36 5.291 C 7.367 5.284 7.376 5.281 7.386 5.281 L 8.172 5.281 C 8.183 5.281 8.192 5.284 8.199 5.291 C 8.206 5.298 8.209 5.307 8.209 5.318 L 8.209 5.453 C 8.209 5.463 8.206 5.472 8.199 5.479 C 8.192 5.486 8.183 5.489 8.172 5.489 L 7.9 5.489 L 7.9 6.293 C 7.9 6.304 7.897 6.313 7.89 6.32 C 7.883 6.327 7.874 6.331 7.863 6.331 L 7.696 6.331 M 8.718 6.331 C 8.708 6.331 8.699 6.327 8.692 6.32 C 8.684 6.313 8.68 6.304 8.68 6.293 L 8.68 5.318 C 8.68 5.307 8.684 5.298 8.692 5.291 C 8.699 5.284 8.708 5.281 8.718 5.281 L 8.857 5.281 C 8.872 5.281 8.884 5.285 8.891 5.293 C 8.899 5.301 8.904 5.307 8.907 5.311 L 9.183 5.819 L 9.462 5.311 C 9.464 5.307 9.469 5.301 9.476 5.293 C 9.484 5.285 9.495 5.281 9.51 5.281 L 9.649 5.281 C 9.66 5.281 9.669 5.284 9.676 5.291 C 9.683 5.298 9.687 5.307 9.687 5.318 L 9.687 6.293 C 9.687 6.304 9.683 6.313 9.676 6.32 C 9.669 6.327 9.66 6.331 9.649 6.331 L 9.496 6.331 C 9.486 6.331 9.478 6.327 9.471 6.32 C 9.464 6.313 9.46 6.304 9.46 6.293 L 9.46 5.687 L 9.27 6.044 C 9.265 6.053 9.258 6.061 9.25 6.068 C 9.242 6.075 9.232 6.079 9.219 6.079 L 9.148 6.079 C 9.135 6.079 9.125 6.075 9.117 6.068 C 9.109 6.061 9.102 6.053 9.097 6.044 L 8.907 5.687 L 8.907 6.293 C 8.907 6.304 8.903 6.313 8.896 6.32 C 8.889 6.327 8.881 6.331 8.871 6.331 L 8.718 6.331 M 9.961 6.331 C 9.95 6.331 9.941 6.327 9.934 6.32 C 9.927 6.313 9.924 6.304 9.924 6.293 L 9.924 5.318 C 9.924 5.307 9.927 5.298 9.934 5.291 C 9.941 5.284 9.95 5.281 9.961 5.281 L 10.131 5.281 C 10.142 5.281 10.151 5.284 10.158 5.291 C 10.165 5.298 10.168 5.307 10.168 5.318 L 10.168 6.293 C 10.168 6.304 10.165 6.313 10.158 6.32 C 10.151 6.327 10.142 6.331 10.131 6.331 L 9.961 6.331 M 10.443 6.331 C 10.432 6.331 10.423 6.327 10.416 6.32 C 10.409 6.313 10.405 6.304 10.405 6.293 L 10.405 5.318 C 10.405 5.307 10.409 5.298 10.416 5.291 C 10.423 5.284 10.432 5.281 10.443 5.281 L 10.609 5.281 C 10.62 5.281 10.629 5.284 10.636 5.291 C 10.643 5.298 10.647 5.307 10.647 5.318 L 10.647 6.13 L 11.112 6.13 C 11.123 6.13 11.132 6.133 11.139 6.14 C 11.146 6.147 11.149 6.156 11.149 6.167 L 11.149 6.293 C 11.149 6.304 11.146 6.313 11.139 6.32 C 11.132 6.327 11.123 6.331 11.112 6.331 L 10.443 6.331 M 11.34 6.331 C 11.329 6.331 11.32 6.327 11.313 6.32 C 11.306 6.313 11.302 6.304 11.302 6.293 L 11.302 5.318 C 11.302 5.307 11.306 5.298 11.313 5.291 C 11.32 5.284 11.329 5.281 11.34 5.281 L 12.019 5.281 C 12.03 5.281 12.039 5.284 12.046 5.291 C 12.053 5.298 12.057 5.307 12.057 5.318 L 12.057 5.438 C 12.057 5.448 12.053 5.457 12.046 5.464 C 12.039 5.471 12.03 5.474 12.019 5.474 L 11.533 5.474 L 11.533 5.71 L 11.986 5.71 C 11.997 5.71 12.006 5.713 12.013 5.72 C 12.02 5.727 12.024 5.736 12.024 5.747 L 12.024 5.858 C 12.024 5.868 12.02 5.877 12.013 5.884 C 12.006 5.891 11.997 5.894 11.986 5.894 L 11.533 5.894 L 11.533 6.137 L 12.031 6.137 C 12.042 6.137 12.051 6.141 12.058 6.148 C 12.065 6.155 12.069 6.164 12.069 6.175 L 12.069 6.293 C 12.069 6.304 12.065 6.313 12.058 6.32 C 12.051 6.327 12.042 6.331 12.031 6.331 L 11.34 6.331" fill-rule="nonzero" style="fill: rgb(70, 70, 70);"/>
  <path d="M 3.918 7.221 C 3.913 7.221 3.909 7.219 3.906 7.216 C 3.903 7.213 3.901 7.209 3.901 7.204 L 3.901 6.713 C 3.901 6.708 3.903 6.704 3.906 6.701 C 3.909 6.697 3.913 6.696 3.918 6.696 L 3.958 6.696 C 3.963 6.696 3.967 6.697 3.97 6.701 C 3.974 6.704 3.975 6.708 3.975 6.713 L 3.975 7.156 L 4.224 7.156 C 4.23 7.156 4.234 7.157 4.237 7.16 C 4.241 7.164 4.242 7.168 4.242 7.174 L 4.242 7.204 C 4.242 7.209 4.241 7.213 4.237 7.216 C 4.234 7.219 4.23 7.221 4.224 7.221 L 3.918 7.221 M 4.512 7.228 C 4.469 7.228 4.433 7.221 4.402 7.206 C 4.372 7.191 4.348 7.169 4.332 7.138 C 4.315 7.107 4.306 7.069 4.304 7.022 C 4.303 7 4.303 6.979 4.303 6.959 C 4.303 6.938 4.303 6.917 4.304 6.895 C 4.306 6.849 4.315 6.811 4.333 6.78 C 4.35 6.749 4.374 6.726 4.405 6.711 C 4.435 6.696 4.471 6.688 4.512 6.688 C 4.553 6.688 4.588 6.696 4.619 6.711 C 4.65 6.726 4.674 6.749 4.692 6.78 C 4.709 6.811 4.719 6.849 4.72 6.895 C 4.721 6.917 4.722 6.938 4.722 6.959 C 4.722 6.979 4.721 7 4.72 7.022 C 4.719 7.069 4.709 7.107 4.693 7.138 C 4.676 7.169 4.652 7.191 4.622 7.206 C 4.591 7.221 4.555 7.228 4.512 7.228 M 4.512 7.165 C 4.55 7.165 4.581 7.153 4.606 7.13 C 4.63 7.107 4.643 7.07 4.645 7.018 C 4.646 6.996 4.647 6.976 4.647 6.958 C 4.647 6.94 4.646 6.92 4.645 6.898 C 4.644 6.864 4.638 6.836 4.626 6.814 C 4.614 6.793 4.599 6.777 4.579 6.767 C 4.56 6.757 4.537 6.752 4.512 6.752 C 4.487 6.752 4.465 6.757 4.446 6.767 C 4.426 6.777 4.41 6.793 4.399 6.814 C 4.387 6.836 4.38 6.864 4.379 6.898 C 4.378 6.92 4.378 6.94 4.378 6.958 C 4.378 6.976 4.378 6.996 4.379 7.018 C 4.381 7.07 4.394 7.107 4.419 7.13 C 4.443 7.153 4.474 7.165 4.512 7.165 M 5.03 7.228 C 4.985 7.228 4.948 7.22 4.917 7.204 C 4.886 7.187 4.863 7.164 4.846 7.134 C 4.83 7.104 4.821 7.069 4.819 7.028 C 4.819 7.006 4.818 6.983 4.818 6.958 C 4.818 6.933 4.819 6.91 4.819 6.887 C 4.821 6.847 4.83 6.811 4.846 6.782 C 4.863 6.752 4.886 6.729 4.917 6.713 C 4.948 6.696 4.986 6.688 5.03 6.688 C 5.065 6.688 5.095 6.693 5.121 6.703 C 5.147 6.713 5.169 6.726 5.185 6.741 C 5.202 6.756 5.215 6.772 5.223 6.789 C 5.231 6.805 5.236 6.82 5.236 6.832 C 5.237 6.837 5.235 6.84 5.232 6.843 C 5.229 6.846 5.225 6.847 5.22 6.847 L 5.176 6.847 C 5.171 6.847 5.167 6.846 5.165 6.844 C 5.163 6.842 5.161 6.839 5.159 6.834 C 5.154 6.821 5.147 6.808 5.137 6.796 C 5.126 6.783 5.113 6.773 5.095 6.764 C 5.078 6.756 5.056 6.752 5.03 6.752 C 4.99 6.752 4.958 6.763 4.933 6.784 C 4.909 6.806 4.896 6.841 4.894 6.891 C 4.893 6.935 4.893 6.98 4.894 7.024 C 4.896 7.074 4.909 7.11 4.934 7.132 C 4.958 7.154 4.99 7.165 5.03 7.165 C 5.056 7.165 5.08 7.16 5.101 7.15 C 5.121 7.14 5.138 7.124 5.15 7.104 C 5.162 7.084 5.168 7.058 5.168 7.027 L 5.168 6.995 L 5.055 6.995 C 5.05 6.995 5.046 6.993 5.043 6.99 C 5.04 6.987 5.038 6.983 5.038 6.977 L 5.038 6.953 C 5.038 6.948 5.04 6.943 5.043 6.94 C 5.046 6.937 5.05 6.935 5.055 6.935 L 5.225 6.935 C 5.23 6.935 5.235 6.937 5.238 6.94 C 5.241 6.943 5.242 6.948 5.242 6.953 L 5.242 7.025 C 5.242 7.066 5.234 7.102 5.217 7.132 C 5.2 7.163 5.176 7.186 5.144 7.203 C 5.112 7.22 5.074 7.228 5.03 7.228 M 5.374 7.221 C 5.369 7.221 5.364 7.219 5.361 7.216 C 5.358 7.213 5.357 7.209 5.357 7.204 L 5.357 6.713 C 5.357 6.708 5.358 6.704 5.361 6.701 C 5.364 6.697 5.369 6.696 5.374 6.696 L 5.414 6.696 C 5.419 6.696 5.424 6.697 5.427 6.701 C 5.43 6.704 5.431 6.708 5.431 6.713 L 5.431 7.204 C 5.431 7.209 5.43 7.213 5.427 7.216 C 5.424 7.219 5.419 7.221 5.414 7.221 L 5.374 7.221 M 5.738 7.228 C 5.694 7.228 5.658 7.222 5.628 7.208 C 5.599 7.195 5.576 7.177 5.56 7.156 C 5.545 7.135 5.536 7.112 5.535 7.089 C 5.535 7.085 5.537 7.081 5.54 7.078 C 5.543 7.075 5.547 7.073 5.552 7.073 L 5.59 7.073 C 5.596 7.073 5.601 7.075 5.604 7.078 C 5.607 7.081 5.609 7.084 5.61 7.088 C 5.613 7.1 5.619 7.112 5.628 7.124 C 5.638 7.135 5.651 7.145 5.669 7.153 C 5.687 7.161 5.71 7.165 5.738 7.165 C 5.781 7.165 5.812 7.157 5.833 7.142 C 5.853 7.126 5.863 7.106 5.863 7.081 C 5.863 7.063 5.858 7.049 5.847 7.038 C 5.836 7.027 5.82 7.018 5.798 7.009 C 5.776 7.001 5.747 6.992 5.712 6.982 C 5.676 6.971 5.646 6.96 5.622 6.947 C 5.598 6.935 5.58 6.919 5.568 6.901 C 5.556 6.882 5.55 6.859 5.55 6.83 C 5.55 6.803 5.558 6.779 5.572 6.758 C 5.587 6.736 5.608 6.72 5.635 6.707 C 5.663 6.695 5.696 6.688 5.734 6.688 C 5.765 6.688 5.792 6.692 5.815 6.701 C 5.839 6.709 5.858 6.72 5.874 6.734 C 5.889 6.747 5.901 6.762 5.909 6.778 C 5.917 6.794 5.921 6.809 5.922 6.824 C 5.922 6.828 5.92 6.831 5.918 6.834 C 5.915 6.837 5.911 6.839 5.906 6.839 L 5.866 6.839 C 5.863 6.839 5.859 6.838 5.855 6.836 C 5.851 6.834 5.849 6.83 5.847 6.825 C 5.844 6.804 5.832 6.787 5.812 6.773 C 5.792 6.759 5.766 6.752 5.734 6.752 C 5.702 6.752 5.675 6.758 5.655 6.771 C 5.635 6.783 5.625 6.803 5.625 6.829 C 5.625 6.846 5.629 6.86 5.639 6.872 C 5.648 6.883 5.663 6.893 5.684 6.901 C 5.704 6.91 5.731 6.919 5.764 6.928 C 5.804 6.939 5.837 6.951 5.862 6.963 C 5.888 6.975 5.907 6.991 5.919 7.009 C 5.931 7.027 5.937 7.051 5.937 7.079 C 5.937 7.111 5.929 7.137 5.913 7.16 C 5.896 7.182 5.873 7.199 5.843 7.211 C 5.813 7.222 5.778 7.228 5.738 7.228 M 6.169 7.221 C 6.164 7.221 6.16 7.219 6.157 7.216 C 6.153 7.213 6.152 7.209 6.152 7.204 L 6.152 6.763 L 6.008 6.763 C 6.003 6.763 5.999 6.761 5.995 6.758 C 5.992 6.754 5.991 6.75 5.991 6.745 L 5.991 6.714 C 5.991 6.708 5.992 6.704 5.995 6.701 C 5.999 6.697 6.003 6.696 6.008 6.696 L 6.369 6.696 C 6.375 6.696 6.379 6.697 6.382 6.701 C 6.386 6.704 6.387 6.708 6.387 6.714 L 6.387 6.745 C 6.387 6.75 6.386 6.754 6.382 6.758 C 6.379 6.761 6.375 6.763 6.369 6.763 L 6.226 6.763 L 6.226 7.204 C 6.226 7.209 6.224 7.213 6.221 7.216 C 6.218 7.219 6.214 7.221 6.208 7.221 L 6.169 7.221 M 6.496 7.221 C 6.491 7.221 6.486 7.219 6.483 7.216 C 6.48 7.213 6.479 7.209 6.479 7.204 L 6.479 6.713 C 6.479 6.708 6.48 6.704 6.483 6.701 C 6.486 6.697 6.491 6.696 6.496 6.696 L 6.536 6.696 C 6.541 6.696 6.546 6.697 6.549 6.701 C 6.552 6.704 6.553 6.708 6.553 6.713 L 6.553 7.204 C 6.553 7.209 6.552 7.213 6.549 7.216 C 6.546 7.219 6.541 7.221 6.536 7.221 L 6.496 7.221 M 6.88 7.228 C 6.834 7.228 6.796 7.22 6.766 7.203 C 6.735 7.186 6.713 7.162 6.697 7.132 C 6.682 7.101 6.673 7.066 6.672 7.025 C 6.671 7.005 6.671 6.983 6.671 6.959 C 6.671 6.936 6.671 6.913 6.672 6.892 C 6.673 6.851 6.682 6.816 6.697 6.785 C 6.713 6.755 6.735 6.731 6.766 6.714 C 6.796 6.697 6.834 6.688 6.88 6.688 C 6.915 6.688 6.945 6.693 6.971 6.703 C 6.997 6.712 7.018 6.725 7.036 6.741 C 7.053 6.757 7.066 6.775 7.075 6.794 C 7.084 6.814 7.089 6.835 7.09 6.856 C 7.091 6.86 7.089 6.864 7.086 6.867 C 7.083 6.87 7.079 6.871 7.074 6.871 L 7.033 6.871 C 7.029 6.871 7.025 6.87 7.021 6.868 C 7.018 6.865 7.016 6.861 7.014 6.854 C 7.006 6.815 6.99 6.788 6.967 6.774 C 6.943 6.759 6.915 6.752 6.88 6.752 C 6.84 6.752 6.808 6.763 6.784 6.786 C 6.761 6.809 6.748 6.845 6.747 6.895 C 6.745 6.936 6.745 6.978 6.747 7.021 C 6.748 7.071 6.761 7.108 6.784 7.13 C 6.808 7.153 6.84 7.165 6.88 7.165 C 6.915 7.165 6.943 7.157 6.967 7.143 C 6.99 7.128 7.006 7.102 7.014 7.063 C 7.016 7.056 7.018 7.052 7.021 7.049 C 7.025 7.047 7.029 7.045 7.033 7.045 L 7.074 7.045 C 7.079 7.045 7.083 7.047 7.086 7.049 C 7.089 7.052 7.091 7.056 7.09 7.06 C 7.089 7.081 7.084 7.102 7.075 7.122 C 7.066 7.142 7.053 7.16 7.036 7.176 C 7.018 7.192 6.997 7.205 6.971 7.214 C 6.945 7.224 6.915 7.228 6.88 7.228 M 7.367 7.228 C 7.323 7.228 7.287 7.222 7.257 7.208 C 7.228 7.195 7.205 7.177 7.189 7.156 C 7.174 7.135 7.165 7.112 7.164 7.089 C 7.164 7.085 7.166 7.081 7.169 7.078 C 7.172 7.075 7.176 7.073 7.181 7.073 L 7.219 7.073 C 7.225 7.073 7.23 7.075 7.233 7.078 C 7.236 7.081 7.238 7.084 7.239 7.088 C 7.242 7.1 7.248 7.112 7.257 7.124 C 7.267 7.135 7.28 7.145 7.298 7.153 C 7.316 7.161 7.339 7.165 7.367 7.165 C 7.41 7.165 7.441 7.157 7.462 7.142 C 7.482 7.126 7.492 7.106 7.492 7.081 C 7.492 7.063 7.487 7.049 7.476 7.038 C 7.465 7.027 7.449 7.018 7.427 7.009 C 7.405 7.001 7.376 6.992 7.341 6.982 C 7.305 6.971 7.275 6.96 7.251 6.947 C 7.227 6.935 7.209 6.919 7.197 6.901 C 7.185 6.882 7.179 6.859 7.179 6.83 C 7.179 6.803 7.187 6.779 7.201 6.758 C 7.216 6.736 7.237 6.72 7.264 6.707 C 7.292 6.695 7.325 6.688 7.363 6.688 C 7.394 6.688 7.421 6.692 7.444 6.701 C 7.468 6.709 7.487 6.72 7.503 6.734 C 7.518 6.747 7.53 6.762 7.538 6.778 C 7.546 6.794 7.55 6.809 7.551 6.824 C 7.551 6.828 7.549 6.831 7.547 6.834 C 7.544 6.837 7.54 6.839 7.535 6.839 L 7.495 6.839 C 7.492 6.839 7.488 6.838 7.484 6.836 C 7.48 6.834 7.478 6.83 7.476 6.825 C 7.473 6.804 7.461 6.787 7.441 6.773 C 7.421 6.759 7.395 6.752 7.363 6.752 C 7.331 6.752 7.304 6.758 7.284 6.771 C 7.264 6.783 7.254 6.803 7.254 6.829 C 7.254 6.846 7.258 6.86 7.268 6.872 C 7.277 6.883 7.292 6.893 7.313 6.901 C 7.333 6.91 7.36 6.919 7.393 6.928 C 7.433 6.939 7.466 6.951 7.491 6.963 C 7.517 6.975 7.536 6.991 7.548 7.009 C 7.56 7.027 7.566 7.051 7.566 7.079 C 7.566 7.111 7.558 7.137 7.542 7.16 C 7.525 7.182 7.502 7.199 7.472 7.211 C 7.442 7.222 7.407 7.228 7.367 7.228 M 7.881 7.221 C 7.875 7.221 7.871 7.219 7.868 7.216 C 7.865 7.213 7.863 7.209 7.863 7.204 L 7.863 6.713 C 7.863 6.708 7.865 6.704 7.868 6.701 C 7.871 6.697 7.875 6.696 7.881 6.696 L 7.92 6.696 C 7.925 6.696 7.929 6.697 7.933 6.701 C 7.936 6.704 7.938 6.708 7.938 6.713 L 7.938 7.156 L 8.187 7.156 C 8.192 7.156 8.196 7.157 8.2 7.16 C 8.203 7.164 8.205 7.168 8.205 7.174 L 8.205 7.204 C 8.205 7.209 8.203 7.213 8.2 7.216 C 8.196 7.219 8.192 7.221 8.187 7.221 L 7.881 7.221 M 8.31 7.221 C 8.305 7.221 8.301 7.219 8.298 7.216 C 8.295 7.213 8.293 7.209 8.293 7.204 L 8.293 6.713 C 8.293 6.708 8.295 6.704 8.298 6.701 C 8.301 6.697 8.305 6.696 8.31 6.696 L 8.35 6.696 C 8.355 6.696 8.359 6.697 8.362 6.701 C 8.366 6.704 8.367 6.708 8.367 6.713 L 8.367 7.156 L 8.616 7.156 C 8.622 7.156 8.626 7.157 8.629 7.16 C 8.633 7.164 8.634 7.168 8.634 7.174 L 8.634 7.204 C 8.634 7.209 8.633 7.213 8.629 7.216 C 8.626 7.219 8.622 7.221 8.616 7.221 L 8.31 7.221 M 8.904 7.228 C 8.858 7.228 8.82 7.22 8.79 7.203 C 8.76 7.186 8.737 7.162 8.721 7.132 C 8.706 7.101 8.697 7.066 8.696 7.025 C 8.695 7.005 8.695 6.983 8.695 6.959 C 8.695 6.936 8.695 6.913 8.696 6.892 C 8.697 6.851 8.706 6.816 8.721 6.785 C 8.737 6.755 8.76 6.731 8.79 6.714 C 8.82 6.697 8.858 6.688 8.904 6.688 C 8.939 6.688 8.969 6.693 8.995 6.703 C 9.021 6.712 9.043 6.725 9.06 6.741 C 9.077 6.757 9.09 6.775 9.099 6.794 C 9.108 6.814 9.113 6.835 9.114 6.856 C 9.115 6.86 9.113 6.864 9.11 6.867 C 9.107 6.87 9.103 6.871 9.099 6.871 L 9.057 6.871 C 9.053 6.871 9.049 6.87 9.046 6.868 C 9.042 6.865 9.04 6.861 9.039 6.854 C 9.03 6.815 9.014 6.788 8.991 6.774 C 8.968 6.759 8.939 6.752 8.904 6.752 C 8.864 6.752 8.832 6.763 8.808 6.786 C 8.785 6.809 8.772 6.845 8.771 6.895 C 8.769 6.936 8.769 6.978 8.771 7.021 C 8.772 7.071 8.785 7.108 8.808 7.13 C 8.832 7.153 8.864 7.165 8.904 7.165 C 8.939 7.165 8.968 7.157 8.991 7.143 C 9.014 7.128 9.03 7.102 9.039 7.063 C 9.04 7.056 9.042 7.052 9.046 7.049 C 9.049 7.047 9.053 7.045 9.057 7.045 L 9.099 7.045 C 9.103 7.045 9.107 7.047 9.11 7.049 C 9.113 7.052 9.115 7.056 9.114 7.06 C 9.113 7.081 9.108 7.102 9.099 7.122 C 9.09 7.142 9.077 7.16 9.06 7.176 C 9.043 7.192 9.021 7.205 8.995 7.214 C 8.969 7.224 8.939 7.228 8.904 7.228" fill-rule="nonzero" style="fill: rgb(70, 70, 70);"/>
</svg>