<?xml version="1.0" encoding="utf-8"?>
<svg version="1.1" id="Layer_1" xmlns="http://www.w3.org/2000/svg" x="0px" y="0px" viewBox="0 0 727.6 96.3" style="enable-background:new 0 0 727.6 96.3;">
  <style type="text/css">
	.st0{fill:#1F97D4;}
	.st1{fill:#26AF93;}
</style>
  <g>
    <g>
      <g>
        <path class="st0" d="M19.9,13c0-0.9-0.2-1.7-0.5-2.2c-0.4-0.6-0.9-1-1.5-1.4c-0.6-0.3-1.3-0.5-2.1-0.7c-0.8-0.1-1.6-0.2-2.4-0.2 H9.3v9.1h3.9c0.9,0,1.7-0.1,2.5-0.2c0.8-0.1,1.5-0.4,2.1-0.8c0.6-0.4,1.1-0.8,1.5-1.4C19.7,14.6,19.9,13.9,19.9,13 M29.2,12.9 c0,2.3-0.4,4.1-1.3,5.7c-0.8,1.5-2,2.8-3.4,3.7c-1.4,0.9-3.1,1.6-4.9,2.1c-1.9,0.4-3.8,0.7-5.8,0.7H9.3v14.5H0V1h14.2 c2.1,0,4.1,0.2,5.9,0.6c1.8,0.4,3.4,1.1,4.8,2c1.4,0.9,2.4,2.1,3.2,3.6C28.8,8.8,29.2,10.7,29.2,12.9"/>
        <path class="st0" d="M53.8,12.9c0-0.9-0.2-1.6-0.6-2.2c-0.4-0.6-0.9-1-1.5-1.3c-0.6-0.3-1.3-0.5-2-0.6c-0.7-0.1-1.5-0.2-2.2-0.2 h-5v9h4.4c0.8,0,1.5-0.1,2.4-0.2c0.8-0.1,1.5-0.4,2.2-0.7c0.7-0.3,1.2-0.8,1.6-1.4C53.6,14.6,53.8,13.8,53.8,12.9 M54.2,39.6 l-8.4-15.3h-3.2v15.3h-9.1V1h14.7c1.8,0,3.7,0.2,5.4,0.6c1.8,0.4,3.3,1,4.7,1.9c1.4,0.9,2.5,2.1,3.3,3.6c0.8,1.5,1.3,3.3,1.3,5.6 c0,2.6-0.7,4.8-2.1,6.6c-1.4,1.8-3.4,3.1-5.9,3.8l10.1,16.5H54.2z"/>
        <path class="st0" d="M98.7,20.1c0-1.7-0.3-3.2-0.8-4.7c-0.5-1.5-1.3-2.7-2.3-3.7c-1-1-2.1-1.9-3.5-2.4c-1.4-0.6-2.9-0.9-4.5-0.9 c-1.6,0-3.1,0.3-4.5,0.9c-1.3,0.6-2.5,1.4-3.5,2.4c-1,1-1.7,2.3-2.3,3.7c-0.5,1.5-0.8,3-0.8,4.7c0,1.7,0.3,3.3,0.8,4.8 c0.5,1.5,1.3,2.7,2.3,3.8c1,1.1,2.1,1.9,3.5,2.5c1.3,0.6,2.8,0.9,4.5,0.9c1.6,0,3.1-0.3,4.5-0.9c1.3-0.6,2.5-1.4,3.5-2.5 c1-1.1,1.7-2.3,2.3-3.8C98.4,23.5,98.7,21.9,98.7,20.1 M108.6,20.1c0,3.1-0.5,5.8-1.6,8.4c-1.1,2.5-2.5,4.7-4.4,6.5 c-1.9,1.8-4.1,3.2-6.7,4.2c-2.6,1-5.4,1.5-8.4,1.5c-3,0-5.8-0.5-8.4-1.5c-2.6-1-4.8-2.4-6.6-4.2c-1.9-1.8-3.3-4-4.4-6.5 c-1.1-2.5-1.6-5.3-1.6-8.4c0-3.1,0.5-5.9,1.6-8.4c1.1-2.5,2.5-4.6,4.4-6.3c1.9-1.7,4.1-3.1,6.6-4C81.8,0.5,84.6,0,87.6,0 c3,0,5.8,0.5,8.4,1.4c2.6,0.9,4.8,2.3,6.7,4c1.9,1.7,3.3,3.9,4.4,6.3C108.1,14.3,108.6,17.1,108.6,20.1"/>
        <path class="st0" d="M141.1,39.6c-2.5,0.6-5.3,0.9-8.2,0.9c-3.1,0-5.9-0.5-8.5-1.5c-2.6-1-4.8-2.4-6.7-4.1 c-1.9-1.8-3.3-3.9-4.4-6.4c-1.1-2.5-1.6-5.3-1.6-8.3c0-3.1,0.5-5.9,1.6-8.4c1.1-2.5,2.6-4.6,4.4-6.4c1.9-1.8,4.1-3.1,6.6-4.1 c2.5-0.9,5.3-1.4,8.2-1.4c3.1,0,5.9,0.5,8.5,1.4c2.6,0.9,4.7,2.2,6.4,3.7l-5.9,6.7c-0.9-1.1-2.1-1.9-3.6-2.6 c-1.5-0.7-3.2-1-5.1-1c-1.6,0-3.1,0.3-4.5,0.9c-1.4,0.6-2.6,1.4-3.6,2.5c-1,1.1-1.8,2.3-2.4,3.8c-0.6,1.5-0.8,3.1-0.8,4.8 c0,1.8,0.3,3.4,0.8,4.9c0.5,1.5,1.3,2.8,2.3,3.8c1,1.1,2.2,1.9,3.7,2.5c1.5,0.6,3.1,0.9,5,0.9c1.1,0,2.1-0.1,3.1-0.2 c1-0.2,1.9-0.4,2.7-0.8v-7h-7.3v-7.5h15.9v20.4C145.9,38.2,143.7,39,141.1,39.6"/>
        <path class="st0" d="M174.4,12.9c0-0.9-0.2-1.6-0.6-2.2c-0.4-0.6-0.9-1-1.5-1.3c-0.6-0.3-1.3-0.5-2-0.6c-0.7-0.1-1.5-0.2-2.2-0.2 h-5v9h4.4c0.8,0,1.5-0.1,2.4-0.2c0.8-0.1,1.5-0.4,2.2-0.7c0.7-0.3,1.2-0.8,1.6-1.4C174.2,14.6,174.4,13.8,174.4,12.9 M174.8,39.6 l-8.4-15.3h-3.2v15.3h-9.1V1h14.7c1.8,0,3.7,0.2,5.4,0.6c1.8,0.4,3.3,1,4.7,1.9c1.4,0.9,2.5,2.1,3.3,3.6c0.8,1.5,1.3,3.3,1.3,5.6 c0,2.6-0.7,4.8-2.1,6.6c-1.4,1.8-3.4,3.1-5.9,3.8l10.1,16.5H174.8z"/>
        <path class="st0" d="M204.8,11.3l-4.9,13.2h9.7L204.8,11.3z M215.1,39.6l-3-7.6h-14.9l-2.8,7.6h-10.1L200.4,1h9l16,38.5H215.1z"/>
        <polygon class="st0" points="262.4,39.6 262.6,12.3 262.4,12.3 252.4,39.6 245.9,39.6 236.1,12.3 236,12.3 236.2,39.6 &#10;&#9;&#9;&#9;&#9;227.4,39.6 227.4,1 240.7,1 249.4,25.8 249.7,25.8 258.1,1 271.5,1 271.5,39.6 &#9;&#9;&#9;"/>
        <polygon class="st0" points="313.1,39.6 313.3,12.3 313.2,12.3 303.1,39.6 296.6,39.6 286.9,12.3 286.7,12.3 286.9,39.6 &#10;&#9;&#9;&#9;&#9;278.2,39.6 278.2,1 291.4,1 300.2,25.8 300.4,25.8 308.8,1 322.3,1 322.3,39.6 &#9;&#9;&#9;"/>
        <path class="st0" d="M344.7,11.3l-4.9,13.2h9.7L344.7,11.3z M355,39.6l-3-7.6h-14.9l-2.8,7.6h-10.1L340.3,1h9l16,38.5H355z"/>
        <polygon class="st0" points="380.6,9 380.6,39.6 371.3,39.6 371.3,9 360.4,9 360.4,1 391.5,1 391.5,9 &#9;&#9;&#9;"/>
        <rect x="394.5" y="1" class="st0" width="9.4" height="38.5"/>
        <path class="st0" d="M438.1,38.9c-2.5,1.1-5.4,1.7-8.7,1.7c-3,0-5.7-0.5-8.2-1.5c-2.5-1-4.7-2.4-6.6-4.2 c-1.9-1.8-3.3-3.9-4.4-6.5c-1.1-2.5-1.6-5.3-1.6-8.3c0-3.1,0.5-5.9,1.6-8.4c1.1-2.5,2.6-4.6,4.4-6.4c1.9-1.8,4.1-3.1,6.6-4.1 c2.5-0.9,5.3-1.4,8.2-1.4c2.7,0,5.4,0.5,8,1.4c2.6,1,4.8,2.4,6.4,4.2l-6.3,6.3c-0.9-1.2-2-2.1-3.4-2.7c-1.4-0.6-2.9-0.9-4.4-0.9 c-1.6,0-3.1,0.3-4.5,0.9c-1.4,0.6-2.5,1.4-3.5,2.5c-1,1.1-1.7,2.3-2.3,3.7c-0.5,1.4-0.8,3-0.8,4.7c0,1.7,0.3,3.3,0.8,4.8 c0.5,1.5,1.3,2.7,2.3,3.7c1,1,2.1,1.8,3.5,2.4c1.3,0.6,2.8,0.9,4.4,0.9c1.9,0,3.5-0.4,4.8-1.1c1.4-0.7,2.5-1.7,3.3-2.8l6.5,6.1 C442.7,36.2,440.6,37.8,438.1,38.9"/>
      </g>
      <g>
        <path class="st0" d="M19.9,68.6c0-0.9-0.2-1.7-0.5-2.2c-0.4-0.6-0.9-1-1.5-1.4c-0.6-0.3-1.3-0.5-2.1-0.7 c-0.8-0.1-1.6-0.2-2.4-0.2H9.3v9.1h3.9c0.9,0,1.7-0.1,2.5-0.2c0.8-0.1,1.5-0.4,2.1-0.8c0.6-0.4,1.1-0.8,1.5-1.4 C19.7,70.3,19.9,69.5,19.9,68.6 M29.2,68.6c0,2.3-0.4,4.1-1.3,5.7c-0.8,1.5-2,2.8-3.4,3.7c-1.4,0.9-3.1,1.6-4.9,2.1 c-1.9,0.4-3.8,0.7-5.8,0.7H9.3v14.5H0V56.7h14.2c2.1,0,4.1,0.2,5.9,0.6c1.8,0.4,3.4,1.1,4.8,2c1.4,0.9,2.4,2.1,3.2,3.6 C28.8,64.5,29.2,66.4,29.2,68.6"/>
        <rect x="33.6" y="56.7" class="st0" width="9.4" height="38.5"/>
        <g>
          <path class="st0" d="M79.9,75.8c0-1.7-0.3-3.2-0.8-4.7c-0.5-1.5-1.3-2.7-2.3-3.7c-1-1-2.1-1.9-3.5-2.4c-1.4-0.6-2.9-0.9-4.5-0.9 s-3.1,0.3-4.5,0.9c-1.3,0.6-2.5,1.4-3.5,2.4c-1,1-1.7,2.3-2.3,3.7c-0.5,1.5-0.8,3-0.8,4.7c0,1.7,0.3,3.3,0.8,4.8 c0.5,1.5,1.3,2.7,2.3,3.8c1,1.1,2.1,1.9,3.5,2.5c1.3,0.6,2.8,0.9,4.5,0.9s3.1-0.3,4.5-0.9c1.3-0.6,2.5-1.4,3.5-2.5 c1-1.1,1.7-2.3,2.3-3.8C79.6,79.2,79.9,77.6,79.9,75.8 M89.8,75.8c0,3.1-0.5,5.8-1.6,8.4c-1.1,2.5-2.5,4.7-4.4,6.5 c-1.9,1.8-4.1,3.2-6.7,4.2c-2.6,1-5.4,1.5-8.4,1.5c-3,0-5.8-0.5-8.4-1.5s-4.8-2.4-6.6-4.2c-1.9-1.8-3.3-4-4.4-6.5 c-1.1-2.5-1.6-5.3-1.6-8.4c0-3.1,0.5-5.9,1.6-8.4c1.1-2.5,2.5-4.6,4.4-6.3c1.9-1.7,4.1-3.1,6.6-4c2.6-0.9,5.3-1.4,8.4-1.4 c3,0,5.8,0.5,8.4,1.4c2.6,0.9,4.8,2.3,6.7,4c1.9,1.7,3.3,3.9,4.4,6.3C89.3,70,89.8,72.7,89.8,75.8"/>
        </g>
        <polygon class="st0" points="119.2,95.3 103.7,70.1 103.6,70.1 103.8,95.3 94.7,95.3 94.7,56.7 105.3,56.7 120.8,81.9 121,81.9 &#10;&#9;&#9;&#9;&#9;120.8,56.7 129.8,56.7 129.8,95.3 &#9;&#9;&#9;"/>
        <polygon class="st0" points="136.5,95.3 136.5,56.7 162.4,56.7 162.4,64.6 145.5,64.6 145.5,71.9 161.5,71.9 161.5,79.3 &#10;&#9;&#9;&#9;&#9;145.5,79.3 145.5,87.3 163.4,87.3 163.4,95.3 &#9;&#9;&#9;"/>
        <polygon class="st0" points="168.3,95.3 168.3,56.7 194.2,56.7 194.2,64.6 177.3,64.6 177.3,71.9 193.3,71.9 193.3,79.3 &#10;&#9;&#9;&#9;&#9;177.3,79.3 177.3,87.3 195.2,87.3 195.2,95.3 &#9;&#9;&#9;"/>
        <path class="st0" d="M220.3,68.5c0-0.9-0.2-1.6-0.6-2.2c-0.4-0.6-0.9-1-1.5-1.3c-0.6-0.3-1.3-0.5-2-0.6c-0.7-0.1-1.5-0.2-2.2-0.2 h-5v9h4.4c0.8,0,1.5-0.1,2.4-0.2c0.8-0.1,1.5-0.4,2.2-0.7c0.7-0.3,1.2-0.8,1.6-1.4C220.1,70.3,220.3,69.5,220.3,68.5 M220.7,95.3 L212.4,80h-3.2v15.3h-9.1V56.7h14.7c1.8,0,3.7,0.2,5.4,0.6c1.8,0.4,3.3,1,4.7,1.9c1.4,0.9,2.5,2.1,3.3,3.6 c0.8,1.5,1.3,3.3,1.3,5.6c0,2.6-0.7,4.8-2.1,6.6c-1.4,1.8-3.4,3.1-5.9,3.8l10.1,16.5H220.7z"/>
        <path class="st0" d="M255.3,66.7c-0.8-1-1.8-1.8-3.1-2.4c-1.3-0.6-2.5-0.9-3.7-0.9c-0.6,0-1.2,0.1-1.9,0.2 c-0.6,0.1-1.2,0.3-1.7,0.6c-0.5,0.3-0.9,0.7-1.3,1.2c-0.3,0.5-0.5,1.1-0.5,1.9c0,0.7,0.1,1.2,0.4,1.6c0.3,0.4,0.7,0.8,1.2,1.1 c0.5,0.3,1.2,0.6,1.9,0.9c0.7,0.3,1.5,0.6,2.4,0.8c1.3,0.4,2.7,0.9,4.1,1.4c1.4,0.5,2.7,1.2,3.9,2.1c1.2,0.9,2.1,2,2.9,3.2 c0.8,1.3,1.1,2.9,1.1,4.8c0,2.2-0.4,4.1-1.2,5.7c-0.8,1.6-1.9,3-3.3,4c-1.4,1.1-3,1.8-4.7,2.3c-1.8,0.5-3.6,0.8-5.5,0.8 c-2.8,0-5.4-0.5-8-1.4c-2.6-1-4.7-2.3-6.4-4.1l6.1-6.2c0.9,1.2,2.2,2.1,3.7,2.9c1.5,0.8,3.1,1.2,4.6,1.2c0.7,0,1.4-0.1,2-0.2 c0.7-0.1,1.2-0.4,1.7-0.7c0.5-0.3,0.9-0.8,1.2-1.3c0.3-0.5,0.4-1.2,0.4-2c0-0.7-0.2-1.3-0.5-1.9c-0.4-0.5-0.9-1-1.6-1.4 c-0.7-0.4-1.5-0.8-2.5-1.1c-1-0.3-2.1-0.7-3.4-1.1c-1.2-0.4-2.4-0.9-3.6-1.4c-1.2-0.5-2.2-1.2-3.2-2.1c-0.9-0.9-1.7-1.9-2.2-3.1 c-0.6-1.2-0.8-2.7-0.8-4.4c0-2.1,0.4-4,1.3-5.5c0.9-1.5,2-2.8,3.4-3.8c1.4-1,3-1.7,4.8-2.1c1.8-0.5,3.6-0.7,5.4-0.7 c2.2,0,4.4,0.4,6.7,1.2c2.3,0.8,4.3,2,6,3.5L255.3,66.7z"/>
      </g>
      <g>
        <path class="st1" d="M298.6,66.7c-0.8-1-1.8-1.8-3.1-2.4c-1.3-0.6-2.5-0.9-3.7-0.9c-0.6,0-1.2,0.1-1.9,0.2 c-0.6,0.1-1.2,0.3-1.7,0.6c-0.5,0.3-0.9,0.7-1.3,1.2c-0.3,0.5-0.5,1.1-0.5,1.9c0,0.7,0.1,1.2,0.4,1.6c0.3,0.4,0.7,0.8,1.2,1.1 c0.5,0.3,1.2,0.6,1.9,0.9c0.7,0.3,1.5,0.6,2.5,0.8c1.3,0.4,2.7,0.9,4.1,1.4c1.4,0.5,2.7,1.2,3.9,2.1c1.2,0.9,2.1,2,2.9,3.2 c0.8,1.3,1.1,2.9,1.1,4.8c0,2.2-0.4,4.1-1.2,5.7c-0.8,1.6-1.9,3-3.3,4c-1.4,1.1-3,1.8-4.7,2.3c-1.8,0.5-3.6,0.8-5.5,0.8 c-2.8,0-5.4-0.5-8-1.4c-2.6-1-4.7-2.3-6.4-4.1l6.1-6.2c0.9,1.2,2.2,2.1,3.7,2.9c1.5,0.8,3.1,1.2,4.6,1.2c0.7,0,1.4-0.1,2-0.2 c0.7-0.1,1.2-0.4,1.7-0.7c0.5-0.3,0.9-0.8,1.2-1.3c0.3-0.5,0.4-1.2,0.4-2c0-0.7-0.2-1.3-0.5-1.9c-0.4-0.5-0.9-1-1.6-1.4 c-0.7-0.4-1.5-0.8-2.5-1.1c-1-0.3-2.1-0.7-3.4-1.1c-1.2-0.4-2.4-0.9-3.6-1.4c-1.2-0.5-2.2-1.2-3.2-2.1c-0.9-0.9-1.7-1.9-2.2-3.1 c-0.6-1.2-0.8-2.7-0.8-4.4c0-2.1,0.4-4,1.3-5.5c0.9-1.5,2-2.8,3.4-3.8c1.4-1,3-1.7,4.8-2.1c1.8-0.5,3.6-0.7,5.4-0.7 c2.2,0,4.4,0.4,6.7,1.2c2.3,0.8,4.3,2,6,3.5L298.6,66.7z"/>
        <path class="st1" d="M340.6,87.1c-0.8,1.9-1.9,3.5-3.3,4.9c-1.5,1.4-3.2,2.4-5.3,3.2c-2,0.8-4.3,1.1-6.8,1.1 c-2.5,0-4.8-0.4-6.9-1.1c-2-0.8-3.8-1.8-5.2-3.2c-1.4-1.4-2.5-3-3.3-4.9c-0.8-1.9-1.1-4-1.1-6.3v-24h9.3V80c0,1.1,0.1,2.1,0.4,3 c0.3,0.9,0.7,1.8,1.3,2.5c0.6,0.7,1.3,1.3,2.2,1.8c0.9,0.4,2,0.7,3.4,0.7c1.3,0,2.4-0.2,3.3-0.7c0.9-0.4,1.7-1,2.3-1.8 c0.6-0.7,1-1.6,1.3-2.5c0.3-0.9,0.4-1.9,0.4-3V56.7h9.3v24C341.8,83,341.4,85.2,340.6,87.1"/>
        <polygon class="st1" points="383,95.3 383.2,68 383.1,68 373.1,95.3 366.5,95.3 356.8,68 356.6,68 356.8,95.3 348.1,95.3 &#10;&#9;&#9;&#9;&#9;348.1,56.7 361.3,56.7 370.1,81.4 370.3,81.4 378.7,56.7 392.2,56.7 392.2,95.3 &#9;&#9;&#9;"/>
        <polygon class="st1" points="433.8,95.3 434,68 433.8,68 423.8,95.3 417.3,95.3 407.5,68 407.4,68 407.6,95.3 398.8,95.3 &#10;&#9;&#9;&#9;&#9;398.8,56.7 412.1,56.7 420.8,81.4 421.1,81.4 429.4,56.7 442.9,56.7 442.9,95.3 &#9;&#9;&#9;"/>
        <rect x="449.6" y="56.7" class="st1" width="9.4" height="38.5"/>
        <polygon class="st1" points="493,56.7 461.9,56.7 461.9,64.7 472.8,64.7 472.8,95.3 482.1,95.3 482.1,64.7 493,64.7 &#9;&#9;&#9;"/>
      </g>
    </g>
    <g>
      <path class="st0" d="M631.4,66.6c-5.2,6-12.8,9.7-21.3,9.7c-15.5,0-28.1-12.6-28.1-28.1S594.6,20,610.1,20 c8.2,0,15.7,3.6,20.8,9.2h23.5C647,12,630,0,610.1,0C583.5,0,562,21.6,562,48.1s21.6,48.1,48.1,48.1c20.1,0,37.3-12.3,44.5-29.7 H631.4z"/>
      <polygon class="st0" points="532.6,1 530,1 518.6,21.2 532.6,21.2 532.6,95.3 552.7,95.3 552.7,21.2 552.7,1 &#9;&#9;"/>
      <g>
        <path class="st1" d="M605.3,50.1l-8.6-15.4h10.7l3.2,7.2l3.4-7.2h9.4l-8.2,15.3v11.3h-10V50.1z"/>
        <path class="st1" d="M625.7,34.8h19.9v7.6h-10v2.3h7.9v6.9h-7.9v2.4h10.6v7.6h-20.5V34.8z"/>
        <path class="st1" d="M655.5,34.8h12.8l8.2,26.7h-10.6l-0.9-3.5h-7.5l-0.9,3.5h-9.2L655.5,34.8z M659,51.2h4.3l-2.1-8.5L659,51.2z "/>
        <path class="st1" d="M678.6,34.8h11.7c7.9,0,11.6,3.2,11.6,9v0.1c0,3.5-1.5,5.6-3.9,6.9l5.5,10.6h-10.3L689,53h-0.6v8.5h-9.9 V34.8z M689.6,46.7c1.9,0,2.8-0.8,2.8-2.4v-0.1c0-1.5-0.9-2.1-2.7-2.1h-1.2v4.6H689.6z"/>
        <path class="st1" d="M703.9,52.8h9.4C713.3,54,714,55,716,55c1.6,0,2.1-0.6,2.1-1.4c0-0.9-0.8-1.4-3-1.6 c-7.9-0.9-10.7-3.1-10.7-8.7c0-5.2,4.1-8.9,11.2-8.9c7,0,10.7,2.7,11.2,8.8h-9.2c-0.1-1.2-0.8-1.9-2.1-1.9 c-1.2,0-1.8,0.5-1.8,1.3c0,0.9,0.7,1.4,3,1.6c6.6,0.6,10.8,2.2,10.8,8.4c0,5.1-3.9,9.4-11.6,9.4C708.4,61.9,704,59.2,703.9,52.8z "/>
      </g>
    </g>
  </g>
</svg>